<svg width="32" height="32" viewBox="0 0 32 32" fill="none" xmlns="http://www.w3.org/2000/svg">
<g id="fi_2106122">
<path id="Vector" d="M26.5406 10.6875C26.3019 10.6875 26.0623 10.7039 25.824 10.7366C25.2554 9.56625 24.0805 8.8125 22.75 8.8125C22.3721 8.8125 22.003 8.87569 21.6466 9.00094C20.4778 6.73712 17.9391 5.0625 15.0625 5.0625C11.5769 5.0625 8.508 7.55612 7.85 10.8821C5.97156 11.386 4.4585 12.8391 3.95531 14.6032C3.51344 14.5999 3.04819 14.6318 3.01581 14.6341C1.32475 14.7521 0 16.1713 0 17.8656C0 19.7663 1.54625 21.3125 3.44688 21.3119H5.99738C5.87556 21.7157 5.8125 22.1369 5.8125 22.5625V22.6213C5.8125 25.0013 7.74875 26.9375 10.1287 26.9375H14.1249C14.4701 26.9375 14.7499 26.6577 14.7499 26.3125C14.7499 25.9673 14.4701 25.6875 14.1249 25.6875H10.1287C8.438 25.6875 7.0625 24.312 7.0625 22.6213V22.5625C7.0625 21.4237 7.68787 20.4041 8.66406 19.853C8.83 19.7593 8.94419 19.5951 8.97406 19.4068C9.10313 18.5947 9.67188 17.9329 10.4583 17.6799C10.6801 17.6085 10.8438 17.4197 10.8829 17.1901C11.2064 15.2962 13.0422 13.8125 15.0625 13.8125C17.0331 13.8125 18.8641 15.2434 19.2309 17.0699C19.2911 17.3694 19.5693 17.6183 19.9654 17.5626C21.0708 17.5728 22.0973 18.1863 22.6495 19.1688C22.916 19.6426 23.4048 19.4375 23.6874 19.4375C25.3794 19.4375 26.8124 20.8077 26.8124 22.5625C26.8124 24.2856 25.4106 25.6875 23.6874 25.6875H19.7499C19.4047 25.6875 19.1249 25.9673 19.1249 26.3125C19.1249 26.6577 19.4047 26.9375 19.7499 26.9375H23.6875C26.0999 26.9375 28.0625 24.9749 28.0625 22.5625C28.0625 22.0784 27.9823 21.5997 27.8274 21.1462C30.1677 20.5579 32 18.4656 32 16V15.9556C32 13.1 29.5016 10.6875 26.5406 10.6875ZM30.75 16C30.75 17.9221 29.202 19.6449 27.2313 19.997C26.4137 18.8715 25.0916 18.1875 23.6875 18.1875C23.6286 18.1875 23.5698 18.1896 23.5119 18.1939C22.7722 17.1319 21.6051 16.4479 20.3301 16.3306C19.6477 14.1508 17.4714 12.5625 15.0625 12.5625C12.5899 12.5625 10.3126 14.2671 9.7255 16.6237C8.76188 17.0523 8.05431 17.8929 7.79944 18.9167C7.33275 19.222 6.93 19.6121 6.61106 20.0625H3.44688C2.2355 20.0625 1.25 19.077 1.25 17.865C1.25 16.825 2.06387 15.9535 3.10256 15.881C3.73644 15.8371 4.20044 15.856 4.3095 15.8671C4.46569 15.9031 4.63125 15.878 4.77087 15.7944C4.93638 15.6954 5.04688 15.5256 5.07037 15.3343C5.33488 13.7206 6.731 12.3591 8.46994 12.021C8.471 12.0208 8.472 12.0204 8.47306 12.0203C8.48194 12.0186 8.49075 12.0171 8.49969 12.0152C8.50275 12.0146 8.50581 12.0139 8.50875 12.0134C8.78775 11.9613 8.98369 11.7401 9.01787 11.4794C9.39775 8.58206 12.0529 6.3125 15.0625 6.3125C17.5378 6.3125 19.8799 7.85419 20.758 10.0616C20.8253 10.2309 20.9632 10.3624 21.1355 10.4216C21.3076 10.4809 21.4973 10.4621 21.6546 10.3699C22.003 10.1659 22.3715 10.0625 22.75 10.0625C23.7156 10.0625 24.5528 10.6908 24.8333 11.6258C24.9282 11.9425 25.2535 12.1303 25.5753 12.0546L25.6167 12.0448C25.9211 11.9736 26.232 11.9375 26.5444 11.9375C28.8241 11.9375 30.75 13.7776 30.75 15.9556V16Z" fill="url(#paint0_linear_881_2265)"/>
<path id="Vector_2" d="M16.9375 26.9375C17.2827 26.9375 17.5625 26.6577 17.5625 26.3125C17.5625 25.9673 17.2827 25.6875 16.9375 25.6875C16.5923 25.6875 16.3125 25.9673 16.3125 26.3125C16.3125 26.6577 16.5923 26.9375 16.9375 26.9375Z" fill="url(#paint1_linear_881_2265)"/>
</g>
<defs>
<linearGradient id="paint0_linear_881_2265" x1="15.9984" y1="5.06671" x2="15.9984" y2="26.9412" gradientUnits="userSpaceOnUse">
<stop stop-color="#AA790F"/>
<stop offset="0.635417" stop-color="#EFD873"/>
<stop offset="1" stop-color="#DDBD53"/>
</linearGradient>
<linearGradient id="paint1_linear_881_2265" x1="16.9374" y1="25.6877" x2="16.9374" y2="26.9377" gradientUnits="userSpaceOnUse">
<stop stop-color="#AA790F"/>
<stop offset="0.635417" stop-color="#EFD873"/>
<stop offset="1" stop-color="#DDBD53"/>
</linearGradient>
</defs>
</svg>
