<svg width="40" height="41" viewBox="0 0 40 41" fill="none" xmlns="http://www.w3.org/2000/svg">
<path d="M39.5 20.5C39.5 31.5574 30.758 40.5 20 40.5C9.24201 40.5 0.5 31.5574 0.5 20.5C0.5 9.44259 9.24201 0.5 20 0.5C30.758 0.5 39.5 9.44259 39.5 20.5Z" stroke="url(#paint0_linear_86_2796)"/>
<path d="M24.2966 21.7548L23.9174 22.1323C23.9174 22.1323 23.0149 23.029 20.5524 20.5807C18.0899 18.1323 18.9924 17.2357 18.9924 17.2357L19.2307 16.9973C19.8199 16.4123 19.8757 15.4723 19.3616 14.7857L18.3116 13.3832C17.6749 12.5332 16.4457 12.4207 15.7166 13.1457L14.4082 14.4457C14.0474 14.8057 13.8057 15.2707 13.8349 15.7873C13.9099 17.1098 14.5082 19.954 17.8449 23.2723C21.3841 26.7907 24.7049 26.9307 26.0624 26.804C26.4924 26.764 26.8657 26.5457 27.1666 26.2457L28.3499 25.069C29.1499 24.2748 28.9249 22.9123 27.9016 22.3565L26.3099 21.4907C25.6382 21.1257 24.8216 21.2332 24.2966 21.7548Z" fill="#D6C175"/>
<defs>
<linearGradient id="paint0_linear_86_2796" x1="20" y1="0" x2="20" y2="41" gradientUnits="userSpaceOnUse">
<stop stop-color="#E7D099"/>
<stop offset="1" stop-color="#A68940"/>
</linearGradient>
</defs>
</svg>
