<svg width="33" height="33" viewBox="0 0 33 33" fill="none" xmlns="http://www.w3.org/2000/svg">
<g clip-path="url(#clip0_86_2780)">
<path d="M25.2778 0.630371H8.27783C4.1357 0.630371 0.777832 3.98824 0.777832 8.13037V25.1304C0.777832 29.2725 4.1357 32.6304 8.27783 32.6304H25.2778C29.42 32.6304 32.7778 29.2725 32.7778 25.1304V8.13037C32.7778 3.98824 29.42 0.630371 25.2778 0.630371Z" fill="white"/>
<path d="M25.2778 0.630371H8.27783C4.1357 0.630371 0.777832 3.98824 0.777832 8.13037V25.1304C0.777832 29.2725 4.1357 32.6304 8.27783 32.6304H25.2778C29.42 32.6304 32.7778 29.2725 32.7778 25.1304V8.13037C32.7778 3.98824 29.42 0.630371 25.2778 0.630371Z" fill="#0A66C2"/>
<path d="M23.8672 27.841H27.526C27.6585 27.841 27.7857 27.7883 27.8795 27.6946C27.9732 27.6009 28.0259 27.4737 28.026 27.3411L28.0278 19.6109C28.0278 15.5705 27.1572 12.4649 22.4356 12.4649C20.6407 12.3981 18.9481 13.3234 18.0347 14.8684C18.0302 14.8759 18.0234 14.8817 18.0154 14.885C18.0073 14.8883 17.9983 14.8888 17.9899 14.8865C17.9815 14.8842 17.974 14.8793 17.9687 14.8724C17.9633 14.8654 17.9604 14.857 17.9603 14.8482V13.3379C17.9603 13.2053 17.9077 13.0781 17.8139 12.9843C17.7201 12.8905 17.5929 12.8379 17.4603 12.8379H13.9882C13.8556 12.8379 13.7284 12.8905 13.6347 12.9843C13.5409 13.0781 13.4882 13.2053 13.4882 13.3379V27.3404C13.4882 27.473 13.5409 27.6002 13.6347 27.6939C13.7284 27.7877 13.8556 27.8404 13.9882 27.8404H17.6467C17.7793 27.8404 17.9065 27.7877 18.0003 27.6939C18.094 27.6002 18.1467 27.473 18.1467 27.3404V20.4187C18.1467 18.4616 18.518 16.5662 20.9443 16.5662C23.3362 16.5662 23.3672 18.8057 23.3672 20.5455V27.341C23.3672 27.4736 23.4199 27.6008 23.5137 27.6945C23.6074 27.7883 23.7346 27.841 23.8672 27.841ZM5.52783 8.08375C5.52783 9.56687 6.74871 10.7871 8.23183 10.7871C9.71458 10.787 10.9347 9.566 10.9347 8.08325C10.9345 6.6005 9.71421 5.38037 8.23133 5.38037C6.74808 5.38037 5.52783 6.60075 5.52783 8.08375ZM6.39771 27.841H10.0611C10.1937 27.841 10.3209 27.7883 10.4146 27.6945C10.5084 27.6008 10.5611 27.4736 10.5611 27.341V13.3379C10.5611 13.2053 10.5084 13.0781 10.4146 12.9843C10.3209 12.8905 10.1937 12.8379 10.0611 12.8379H6.39771C6.2651 12.8379 6.13792 12.8905 6.04415 12.9843C5.95039 13.0781 5.89771 13.2053 5.89771 13.3379V27.341C5.89771 27.4736 5.95039 27.6008 6.04415 27.6945C6.13792 27.7883 6.2651 27.841 6.39771 27.841Z" fill="white"/>
</g>
<defs>
<clipPath id="clip0_86_2780">
<rect width="32" height="32" fill="white" transform="translate(0.777832 0.630371)"/>
</clipPath>
</defs>
</svg>
