<svg width="36" height="36" viewBox="0 0 36 36" fill="none" xmlns="http://www.w3.org/2000/svg">
<circle cx="18" cy="18" r="17.5" stroke="url(#paint0_linear_86_2665)"/>
<path d="M18 17.5416C17.3922 17.5416 16.8093 17.3002 16.3795 16.8704C15.9498 16.4407 15.7083 15.8578 15.7083 15.25C15.7083 14.6422 15.9498 14.0593 16.3795 13.6295C16.8093 13.1998 17.3922 12.9583 18 12.9583C18.6078 12.9583 19.1907 13.1998 19.6204 13.6295C20.0502 14.0593 20.2917 14.6422 20.2917 15.25C20.2917 15.5509 20.2324 15.8489 20.1172 16.127C20.0021 16.405 19.8332 16.6576 19.6204 16.8704C19.4076 17.0832 19.155 17.252 18.877 17.3672C18.5989 17.4824 18.3009 17.5416 18 17.5416ZM18 8.83331C16.2982 8.83331 14.6661 9.50935 13.4627 10.7127C12.2594 11.9161 11.5833 13.5482 11.5833 15.25C11.5833 20.0625 18 27.1666 18 27.1666C18 27.1666 24.4167 20.0625 24.4167 15.25C24.4167 13.5482 23.7406 11.9161 22.5373 10.7127C21.3339 9.50935 19.7018 8.83331 18 8.83331Z" fill="#D6C175"/>
<defs>
<linearGradient id="paint0_linear_86_2665" x1="18" y1="0" x2="18" y2="36" gradientUnits="userSpaceOnUse">
<stop stop-color="#E7D099"/>
<stop offset="1" stop-color="#A68940"/>
</linearGradient>
</defs>
</svg>
