<svg width="40" height="41" viewBox="0 0 40 41" fill="none" xmlns="http://www.w3.org/2000/svg">
<path d="M39.5 20.5C39.5 31.5574 30.758 40.5 20 40.5C9.24201 40.5 0.5 31.5574 0.5 20.5C0.5 9.44259 9.24201 0.5 20 0.5C30.758 0.5 39.5 9.44259 39.5 20.5Z" stroke="url(#paint0_linear_86_2802)"/>
<path d="M12.1428 18.2313L19.7528 22.1891C19.8292 22.2288 19.9139 22.2496 20 22.2496C20.086 22.2496 20.1708 22.2288 20.2471 22.1891L27.8571 18.232V25.107C27.8571 25.7 27.6303 26.2705 27.2231 26.7015C26.8158 27.1325 26.2591 27.3913 25.6671 27.4249L25.5357 27.4284H14.4643C13.8713 27.4285 13.3008 27.2016 12.8698 26.7944C12.4388 26.3872 12.18 25.8304 12.1464 25.2384L12.1428 25.107V18.2313ZM14.4643 14.5713H25.5357C26.1286 14.5713 26.6991 14.7981 27.1301 15.2053C27.5611 15.6126 27.82 16.1693 27.8535 16.7613L27.8571 16.8927V17.0241L20 21.1099L12.1428 17.0241V16.8927C12.1428 16.2998 12.3696 15.7293 12.7769 15.2983C13.1841 14.8673 13.7408 14.6084 14.3328 14.5749L14.4643 14.5713Z" fill="#D6C175"/>
<defs>
<linearGradient id="paint0_linear_86_2802" x1="20" y1="0" x2="20" y2="41" gradientUnits="userSpaceOnUse">
<stop stop-color="#E7D099"/>
<stop offset="1" stop-color="#A68940"/>
</linearGradient>
</defs>
</svg>
