<svg width="38" height="31" viewBox="0 0 38 31" fill="none" xmlns="http://www.w3.org/2000/svg">
<path d="M19.3507 0.630371C20.3595 0.635996 22.8831 0.660373 25.5655 0.767255L26.5175 0.808507C29.2169 0.93414 31.9144 1.15165 33.2537 1.52105C35.0387 2.01983 36.4404 3.47117 36.9145 5.31254C37.6701 8.23772 37.7645 13.9418 37.7759 15.3238L37.7778 15.6088V15.9351C37.7646 17.317 37.6701 23.023 36.9145 25.9463C36.4347 27.7933 35.0312 29.2465 33.2537 29.7378C31.9144 30.1072 29.2169 30.3247 26.5175 30.4504L25.5655 30.4935C22.8831 30.5985 20.3595 30.6247 19.3507 30.6285L18.9068 30.6304H18.4251C16.2906 30.6172 7.36326 30.5216 4.52223 29.7378C2.73903 29.239 1.33551 27.7877 0.861376 25.9463C0.105783 23.0211 0.0113339 17.317 0 15.9351V15.3238C0.0113339 13.9418 0.105783 8.23585 0.861376 5.31254C1.34118 3.46555 2.74469 2.01233 4.52411 1.52293C7.36326 0.737252 16.2925 0.641622 18.427 0.630371H19.3507ZM15.11 9.0684V22.1942L26.4439 15.6313L15.11 9.0684Z" fill="#EB2417"/>
</svg>
