<svg width="40" height="32" viewBox="0 0 40 32" fill="none" xmlns="http://www.w3.org/2000/svg">
<path d="M5.77778 1.24003e-08H33.3333C34.8091 -9.66164e-05 36.229 0.56454 37.3017 1.57808C38.3745 2.59162 39.0187 3.97723 39.1022 5.45067L39.1111 5.77778V26.2222C39.1112 27.698 38.5466 29.1179 37.533 30.1906C36.5195 31.2633 35.1339 31.9076 33.6604 31.9911L33.3333 32H5.77778C4.30198 32.0001 2.88208 31.4355 1.80937 30.4219C0.736652 29.4084 0.0924421 28.0228 0.00888911 26.5493L1.24003e-08 26.2222V5.77778C-9.66164e-05 4.30198 0.564541 2.88208 1.57808 1.80937C2.59163 0.736652 3.97723 0.0924421 5.45067 0.00888911L5.77778 1.24003e-08H33.3333H5.77778ZM36.4444 10.4978L20.1707 18.96C20.013 19.0419 19.8406 19.0915 19.6635 19.1059C19.4865 19.1202 19.3083 19.099 19.1396 19.0436L18.9404 18.96L2.66667 10.4978V26.2222C2.6667 27.003 2.9603 27.7552 3.48921 28.3296C4.01811 28.9039 4.74364 29.2584 5.52178 29.3227L5.77778 29.3333H33.3333C34.1144 29.3333 34.8669 29.0394 35.4413 28.5101C36.0157 27.9809 36.37 27.2549 36.4338 26.4764L36.4444 26.2222V10.4978ZM33.3333 2.66667H5.77778C4.997 2.6667 4.24477 2.9603 3.67042 3.48921C3.09606 4.01811 2.74158 4.74364 2.67733 5.52178L2.66667 5.77778V7.49156L19.5556 16.2738L36.4444 7.49156V5.77778C36.4444 4.99671 36.1505 4.24425 35.6213 3.66985C35.092 3.09546 34.366 2.74116 33.5876 2.67733L33.3333 2.66667Z" fill="url(#paint0_linear_140_280)"/>
<defs>
<linearGradient id="paint0_linear_140_280" x1="19.5537" y1="0.00615385" x2="19.5537" y2="32.0054" gradientUnits="userSpaceOnUse">
<stop stop-color="#AA790F"/>
<stop offset="0.635417" stop-color="#EFD873"/>
<stop offset="1" stop-color="#DDBD53"/>
</linearGradient>
</defs>
</svg>
