<svg width="44" height="44" viewBox="0 0 44 44" fill="none" xmlns="http://www.w3.org/2000/svg">
<path d="M22.0003 21.0834C20.7847 21.0834 19.619 20.6005 18.7594 19.741C17.8999 18.8814 17.417 17.7157 17.417 16.5001C17.417 15.2845 17.8999 14.1187 18.7594 13.2592C19.619 12.3996 20.7847 11.9167 22.0003 11.9167C23.2159 11.9167 24.3817 12.3996 25.2412 13.2592C26.1008 14.1187 26.5837 15.2845 26.5837 16.5001C26.5837 17.102 26.4651 17.698 26.2348 18.254C26.0044 18.8101 25.6668 19.3154 25.2412 19.741C24.8156 20.1666 24.3104 20.5042 23.7543 20.7345C23.1982 20.9649 22.6022 21.0834 22.0003 21.0834ZM22.0003 3.66675C18.5967 3.66675 15.3325 5.01883 12.9258 7.42554C10.5191 9.83226 9.16699 13.0965 9.16699 16.5001C9.16699 26.1251 22.0003 40.3334 22.0003 40.3334C22.0003 40.3334 34.8337 26.1251 34.8337 16.5001C34.8337 13.0965 33.4816 9.83226 31.0749 7.42554C28.6681 5.01883 25.4039 3.66675 22.0003 3.66675Z" fill="url(#paint0_linear_140_288)"/>
<defs>
<linearGradient id="paint0_linear_140_288" x1="21.9991" y1="3.6738" x2="21.9991" y2="40.3396" gradientUnits="userSpaceOnUse">
<stop stop-color="#AA790F"/>
<stop offset="0.635417" stop-color="#EFD873"/>
<stop offset="1" stop-color="#DDBD53"/>
</linearGradient>
</defs>
</svg>
