<svg width="82" height="70" viewBox="0 0 82 70" fill="none" xmlns="http://www.w3.org/2000/svg">
<path d="M57.9394 63.9335H22.9033C22.4034 63.9335 21.9313 63.701 21.6263 63.3046C21.3214 62.9082 21.2175 62.3926 21.346 61.9092L29.0211 32.9435C29.2085 32.2369 29.8478 31.7446 30.5785 31.7446H33.9256C34.8155 31.7446 35.537 32.4661 35.537 33.356C35.537 34.2458 34.8155 34.9673 33.9256 34.9673H31.8188L24.9976 60.7104H56.0054L51.2713 34.9677H48.7431C47.8532 34.9677 47.1317 34.2462 47.1317 33.3564C47.1317 32.4665 47.8532 31.745 48.7431 31.745H52.6135C53.391 31.745 54.0577 32.3001 54.1982 33.0651L59.5245 62.0309C59.6111 62.501 59.4842 62.986 59.1781 63.3534C58.8715 63.7208 58.4179 63.9335 57.9394 63.9335Z" fill="url(#paint0_linear_94_3256)"/>
<path d="M22.9738 63.934C22.6555 63.934 22.3401 63.8398 22.0694 63.6565L0.707133 49.1726C0.0110367 48.7009 -0.204882 47.7732 0.211245 47.042L13.9467 22.901C14.1646 22.5179 14.53 22.2408 14.9578 22.1344C15.3844 22.0281 15.838 22.101 16.2098 22.337L31.4421 31.9946C32.0347 32.3704 32.3163 33.0863 32.1382 33.7646L24.5327 62.7324C24.3998 63.2379 24.03 63.648 23.5406 63.8317C23.3565 63.9002 23.1643 63.934 22.9738 63.934ZM3.74853 47.3409L21.9933 59.7111L28.7214 34.0853L15.9109 25.9638L3.74853 47.3409Z" fill="url(#paint1_linear_94_3256)"/>
<path d="M79.7253 70.0001C79.5811 70.0001 79.4357 69.9807 79.2931 69.9412L57.5054 63.8754C56.9108 63.7098 56.4629 63.2192 56.3525 62.6117L51.0456 33.4538C50.9461 32.9071 51.1358 32.3472 51.5467 31.9734C51.958 31.5991 52.532 31.4642 53.0678 31.6144L72.3486 37.0454C72.8985 37.2001 73.3255 37.6348 73.4701 38.1875L81.2835 67.9802C81.4297 68.5382 81.2665 69.132 80.8556 69.5368C80.5507 69.8377 80.143 70.0001 79.7253 70.0001ZM59.3423 61.041L77.4553 66.0841L70.5874 39.8971L54.6787 35.4156L59.3423 61.041Z" fill="url(#paint2_linear_94_3256)"/>
<path d="M73.0443 46.559C72.8739 46.559 72.7003 46.5316 72.5299 46.4744C72.2697 46.3866 72.0155 46.3193 71.7746 46.2738C70.8997 46.1098 70.3236 45.2675 70.488 44.393C70.6523 43.5184 71.4971 42.942 72.3688 43.1067C72.7571 43.1796 73.1575 43.2848 73.5592 43.4205C74.4027 43.7049 74.8559 44.619 74.5715 45.4621C74.3447 46.1344 73.7171 46.559 73.0443 46.559Z" fill="url(#paint3_linear_94_3256)"/>
<path d="M51.3372 57.3892C51.1394 57.3892 50.938 57.3864 50.7346 57.3803L50.6419 57.3775C49.7525 57.3465 49.0564 56.6004 49.0874 55.7114C49.1184 54.8215 49.8777 54.1246 50.7539 54.1568L50.8276 54.1588C51.4681 54.1774 52.0712 54.1621 52.6585 54.1129C53.5379 54.0372 54.3238 54.6982 54.3975 55.5857C54.4713 56.4723 53.8118 57.251 52.9252 57.3247C52.4083 57.3674 51.8746 57.3892 51.3372 57.3892ZM44.5313 56.2818C44.3646 56.2818 44.1946 56.2556 44.0278 56.2008C43.3297 55.9712 42.6259 55.7045 41.9355 55.408C41.1181 55.0568 40.7399 54.1093 41.0911 53.2915C41.442 52.4742 42.3879 52.0955 43.2076 52.4468C43.8111 52.7062 44.4258 52.9391 45.0341 53.1393C45.8796 53.4172 46.3397 54.328 46.0617 55.1732C45.8385 55.8516 45.2085 56.2818 44.5313 56.2818ZM58.755 55.5112C58.1959 55.5112 57.6532 55.2203 57.3551 54.7007C56.9124 53.9284 57.1799 52.9439 57.9521 52.5016C58.4823 52.1979 58.9931 51.8563 59.5139 51.457C60.2205 50.9152 61.2316 51.0498 61.773 51.7555C62.3144 52.4617 62.1807 53.4732 61.4745 54.0146C60.8473 54.4956 60.2012 54.9275 59.5538 55.2981C59.3016 55.4423 59.0265 55.5112 58.755 55.5112ZM37.1333 52.4009C36.8042 52.4009 36.4723 52.3002 36.1858 52.0919C35.6086 51.6722 35.0257 51.2198 34.4528 50.7481C33.7656 50.1825 33.6673 49.1669 34.2329 48.4801C34.7985 47.7929 35.8144 47.695 36.5009 48.2606C37.0249 48.692 37.5571 49.1045 38.0828 49.4872C38.8022 50.0113 38.961 51.0188 38.4369 51.7382C38.1219 52.1709 37.6308 52.4009 37.1333 52.4009ZM64.9788 49.9476C64.5884 49.9476 64.1977 49.807 63.8879 49.5218C63.2333 48.9192 63.191 47.9 63.7936 47.245C64.2448 46.7544 64.7802 46.1827 65.3264 45.6627C65.9718 45.0488 66.9913 45.0746 67.6044 45.7183C68.218 46.3628 68.1934 47.3824 67.5489 47.9963C67.0703 48.4519 66.5809 48.9756 66.1647 49.4272C65.8469 49.7724 65.4134 49.9476 64.9788 49.9476ZM30.9188 46.7814C30.4878 46.7814 30.0571 46.6093 29.7397 46.269C29.2817 45.7775 28.8112 45.2582 28.302 44.6814C27.7126 44.0143 27.7759 42.9959 28.4434 42.407C29.1105 41.8176 30.1292 41.8809 30.7178 42.5484C31.208 43.1031 31.6592 43.6014 32.0975 44.0711C32.7041 44.7221 32.6687 45.7412 32.0181 46.3483C31.7067 46.6379 31.3124 46.7814 30.9188 46.7814ZM25.3589 40.4907C24.9423 40.4907 24.5262 40.3304 24.2104 40.0101L24.1443 39.9433C23.7536 39.5525 23.3081 39.1742 22.8198 38.8185C22.1008 38.2949 21.942 37.287 22.4661 36.5675C22.9906 35.8476 23.9989 35.6897 24.7176 36.2138C25.3407 36.6674 25.9144 37.1556 26.4228 37.6644L26.507 37.749C27.1313 38.3831 27.1233 39.4035 26.4892 40.0279C26.1758 40.3364 25.7674 40.4907 25.3589 40.4907ZM18.1147 36.4414C17.9689 36.4414 17.8207 36.4213 17.6728 36.3794C17.0512 36.2025 16.4208 36.0591 15.7988 35.9528C14.9215 35.8033 14.3317 34.9707 14.4812 34.0937C14.631 33.2163 15.4637 32.6258 16.3406 32.776C17.0766 32.9017 17.8219 33.0709 18.5546 33.2796C19.4106 33.5229 19.9069 34.4144 19.6636 35.2704C19.4622 35.979 18.8165 36.4414 18.1147 36.4414Z" fill="url(#paint4_linear_94_3256)"/>
<path d="M8.908 36.6266C8.32429 36.6266 7.76073 36.308 7.47432 35.7533C7.06665 34.9625 7.37723 33.9905 8.1684 33.5828C8.5237 33.3995 8.90961 33.2368 9.31527 33.099C10.1584 32.8122 11.0724 33.2634 11.3592 34.1061C11.6457 34.9488 11.1949 35.8641 10.3522 36.1505C10.0972 36.2371 9.85909 36.337 9.64519 36.4474C9.40953 36.5686 9.15695 36.6266 8.908 36.6266Z" fill="url(#paint5_linear_94_3256)"/>
<path d="M41.3475 44.6215C40.9668 44.6215 40.5708 44.4865 40.2804 44.2404C36.14 40.7386 32.1862 34.5313 29.7048 27.636C26.0414 17.4568 27.266 11.0985 28.3222 8.21418C29.6943 4.46702 33.0656 0 41.3346 0C49.6035 0 52.9749 4.46662 54.3469 8.21418C55.4027 11.0985 56.6274 17.4564 52.964 27.636C50.4821 34.5313 46.5287 40.7386 42.388 44.2404C42.0971 44.4865 41.7281 44.6215 41.3475 44.6215ZM41.3346 3.22267C36.19 3.22267 32.8308 5.2747 31.3483 9.32238C28.1664 18.0135 34.142 33.8143 41.3342 40.8437C48.5268 33.8143 54.5028 18.0135 51.3204 9.32238C49.8384 5.27511 46.4784 3.22267 41.3346 3.22267Z" fill="url(#paint6_linear_94_3256)"/>
<path d="M41.3337 22.9268C37.1104 22.9268 33.6738 19.4906 33.6738 15.2673C33.6738 11.0436 37.11 7.60742 41.3337 7.60742C45.5574 7.60742 48.9936 11.0436 48.9936 15.2673C48.9932 19.4906 45.557 22.9268 41.3337 22.9268ZM41.3337 10.8301C38.8873 10.8301 36.8965 12.8205 36.8965 15.2673C36.8965 17.7137 38.8869 19.7041 41.3337 19.7041C43.7805 19.7041 45.7709 17.7137 45.7709 15.2673C45.7705 12.8205 43.7801 10.8301 41.3337 10.8301Z" fill="url(#paint7_linear_94_3256)"/>
<defs>
<linearGradient id="paint0_linear_94_3256" x1="40.4197" y1="31.7508" x2="40.4197" y2="63.9389" gradientUnits="userSpaceOnUse">
<stop stop-color="#AA790F"/>
<stop offset="0.635417" stop-color="#EFD873"/>
<stop offset="1" stop-color="#DDBD53"/>
</linearGradient>
<linearGradient id="paint1_linear_94_3256" x1="16.094" y1="22.0947" x2="16.094" y2="63.9411" gradientUnits="userSpaceOnUse">
<stop stop-color="#AA790F"/>
<stop offset="0.635417" stop-color="#EFD873"/>
<stop offset="1" stop-color="#DDBD53"/>
</linearGradient>
<linearGradient id="paint2_linear_94_3256" x1="66.1764" y1="31.5616" x2="66.1764" y2="70.0066" gradientUnits="userSpaceOnUse">
<stop stop-color="#AA790F"/>
<stop offset="0.635417" stop-color="#EFD873"/>
<stop offset="1" stop-color="#DDBD53"/>
</linearGradient>
<linearGradient id="paint3_linear_94_3256" x1="72.558" y1="43.0793" x2="72.558" y2="46.5596" gradientUnits="userSpaceOnUse">
<stop stop-color="#AA790F"/>
<stop offset="0.635417" stop-color="#EFD873"/>
<stop offset="1" stop-color="#DDBD53"/>
</linearGradient>
<linearGradient id="paint4_linear_94_3256" x1="41.2509" y1="32.7574" x2="41.2509" y2="57.3933" gradientUnits="userSpaceOnUse">
<stop stop-color="#AA790F"/>
<stop offset="0.635417" stop-color="#EFD873"/>
<stop offset="1" stop-color="#DDBD53"/>
</linearGradient>
<linearGradient id="paint5_linear_94_3256" x1="9.36997" y1="33.0134" x2="9.36997" y2="36.6273" gradientUnits="userSpaceOnUse">
<stop stop-color="#AA790F"/>
<stop offset="0.635417" stop-color="#EFD873"/>
<stop offset="1" stop-color="#DDBD53"/>
</linearGradient>
<linearGradient id="paint6_linear_94_3256" x1="41.333" y1="0.00858105" x2="41.333" y2="44.629" gradientUnits="userSpaceOnUse">
<stop stop-color="#AA790F"/>
<stop offset="0.635417" stop-color="#EFD873"/>
<stop offset="1" stop-color="#DDBD53"/>
</linearGradient>
<linearGradient id="paint7_linear_94_3256" x1="41.333" y1="7.61037" x2="41.333" y2="22.9294" gradientUnits="userSpaceOnUse">
<stop stop-color="#AA790F"/>
<stop offset="0.635417" stop-color="#EFD873"/>
<stop offset="1" stop-color="#DDBD53"/>
</linearGradient>
</defs>
</svg>
