<svg width="32" height="32" viewBox="0 0 32 32" fill="none" xmlns="http://www.w3.org/2000/svg">
<path d="M19.34 24.6778C19.224 24.6778 19.1127 24.6317 19.0306 24.5496C18.9486 24.4676 18.9025 24.3563 18.9025 24.2403C18.9025 24.1242 18.9486 24.013 19.0306 23.9309C19.1127 23.8489 19.224 23.8028 19.34 23.8028H19.6423C19.7583 23.8028 19.8696 23.8489 19.9516 23.9309C20.0337 24.013 20.0798 24.1242 20.0798 24.2403C20.0798 24.3563 20.0337 24.4676 19.9516 24.5496C19.8696 24.6317 19.7583 24.6778 19.6423 24.6778H19.34ZM21.7375 16.221V15.1523H21.5375C20.7279 15.151 19.9518 14.8287 19.3796 14.2559C18.8073 13.6832 18.4856 12.9069 18.485 12.0973V11.0073C18.4802 10.7567 18.5473 10.5099 18.6783 10.2962C18.8094 10.0826 18.999 9.91096 19.2246 9.80173C19.4502 9.6925 19.7024 9.65023 19.9513 9.67992C20.2002 9.70962 20.4354 9.81003 20.629 9.96927C20.7796 10.0922 20.9008 10.2471 20.984 10.4228C21.0672 10.5984 21.1103 10.7904 21.11 10.9848V11.9323C21.1098 12.0897 21.1721 12.2408 21.2832 12.3523C21.3943 12.4639 21.5451 12.5268 21.7025 12.5273H21.7375V10.2773C21.722 10.0955 21.7445 9.91255 21.8034 9.73992C21.8623 9.5673 21.9565 9.4088 22.0799 9.27446C22.2032 9.14012 22.3532 9.03287 22.5202 8.95951C22.6872 8.88614 22.8676 8.84826 23.05 8.84826C23.2324 8.84826 23.4128 8.88614 23.5798 8.95951C23.7468 9.03287 23.8968 9.14012 24.0201 9.27446C24.1435 9.4088 24.2377 9.5673 24.2966 9.73992C24.3555 9.91255 24.378 10.0955 24.3625 10.2773V13.8398H24.47C24.6271 13.8396 24.7777 13.7771 24.8887 13.666C24.9998 13.5549 25.0623 13.4044 25.0625 13.2473V12.5323C25.0576 12.2817 25.1246 12.0349 25.2557 11.8212C25.3867 11.6075 25.5763 11.4359 25.8019 11.3267C26.0275 11.2174 26.2797 11.1751 26.5286 11.2049C26.7775 11.2346 27.0127 11.335 27.2062 11.4943C27.3569 11.6171 27.4782 11.772 27.5615 11.9477C27.6447 12.1234 27.6878 12.3154 27.6875 12.5098V13.4123C27.6862 14.2219 27.3639 14.998 26.7912 15.5702C26.2184 16.1425 25.4421 16.4642 24.6325 16.4648H24.3625V18.8413L26.2192 20.9068C26.613 20.9209 26.986 21.0871 27.2598 21.3704C27.5336 21.6538 27.6869 22.0322 27.6875 22.4263V23.1555C27.6868 23.559 27.5262 23.9458 27.2408 24.2311C26.9555 24.5164 26.5688 24.677 26.1653 24.6778H22.4573C22.3412 24.6778 22.2299 24.6317 22.1479 24.5496C22.0658 24.4676 22.0198 24.3563 22.0198 24.2403C22.0198 24.1242 22.0658 24.013 22.1479 23.9309C22.2299 23.8489 22.3412 23.8028 22.4573 23.8028H26.1653C26.3369 23.8026 26.5014 23.7344 26.6228 23.6131C26.7441 23.4917 26.8124 23.3271 26.8125 23.1555V22.4263C26.8124 22.2547 26.7441 22.0901 26.6228 21.9687C26.5014 21.8474 26.3369 21.7792 26.1653 21.779H26.0275C26.0257 21.779 26.0243 21.779 26.0225 21.779H5.9775C5.97575 21.779 5.97425 21.779 5.9725 21.779H5.83475C5.66313 21.7792 5.49858 21.8474 5.37722 21.9687C5.25587 22.0901 5.18763 22.2547 5.1875 22.4263V23.1555C5.18763 23.3271 5.25587 23.4917 5.37722 23.6131C5.49858 23.7344 5.66313 23.8026 5.83475 23.8028H16.53C16.646 23.8028 16.7573 23.8489 16.8394 23.9309C16.9214 24.013 16.9675 24.1242 16.9675 24.2403C16.9675 24.3563 16.9214 24.4676 16.8394 24.5496C16.7573 24.6317 16.646 24.6778 16.53 24.6778H5.83475C5.43125 24.677 5.04448 24.5164 4.75916 24.2311C4.47384 23.9458 4.31323 23.559 4.3125 23.1555V22.4263C4.31309 22.0322 4.46639 21.6538 4.74019 21.3704C5.01399 21.0871 5.38697 20.9209 5.78075 20.9068L10.2557 15.9273C10.5585 15.5902 10.9288 15.3205 11.3426 15.136C11.7564 14.9514 12.2044 14.856 12.6575 14.856C13.1106 14.856 13.5586 14.9514 13.9724 15.136C14.3862 15.3205 14.7565 15.5902 15.0592 15.9273L16.89 17.9625L17.8295 16.9173C18.3105 16.3828 18.9561 16.0241 19.6639 15.898C20.3718 15.7719 21.1015 15.8856 21.7375 16.221ZM24.3625 15.5898H24.6325C25.2101 15.5894 25.7641 15.36 26.1727 14.9518C26.5814 14.5436 26.8115 13.9899 26.8125 13.4123V12.5098C26.8126 12.4449 26.7981 12.3808 26.7703 12.3222C26.7424 12.2636 26.7019 12.2119 26.6515 12.171C26.6 12.129 26.5397 12.0992 26.4751 12.0836C26.4105 12.0681 26.3432 12.0673 26.2782 12.0813C26.179 12.1069 26.0914 12.1652 26.0295 12.2469C25.9676 12.3286 25.9352 12.4288 25.9375 12.5313V13.2463C25.937 13.6353 25.7823 14.0083 25.5072 14.2834C25.2321 14.5585 24.8591 14.7133 24.47 14.7138H24.3625V15.5898ZM18.3575 20.904L16.5645 18.9098V18.908L14.4108 16.5123C14.1901 16.2664 13.9202 16.0698 13.6185 15.9352C13.3169 15.8006 12.9902 15.731 12.6599 15.731C12.3295 15.731 12.0029 15.8006 11.7012 15.9352C11.3996 16.0698 11.1296 16.2664 10.909 16.5123L6.95975 20.904H18.3575ZM22.6125 16.896C22.6192 16.9035 22.6262 16.9098 22.6327 16.917L23.4875 17.867V10.2773C23.4994 10.1464 23.4607 10.0158 23.3793 9.9126C23.298 9.80936 23.1801 9.74124 23.05 9.72227C22.9192 9.73978 22.8004 9.8075 22.7188 9.91111C22.6371 10.0147 22.599 10.146 22.6125 10.2773V16.896ZM21.7375 14.2773V13.4023H21.7025C21.3131 13.4015 20.9399 13.2463 20.6648 12.9707C20.3897 12.6951 20.2351 12.3217 20.235 11.9323V10.9848C20.2348 10.8685 20.1885 10.7571 20.1062 10.6749C20.024 10.5928 19.9125 10.5466 19.7962 10.5465C19.7643 10.5466 19.7323 10.5499 19.701 10.5563C19.6017 10.5818 19.514 10.6402 19.4521 10.7219C19.3902 10.8036 19.3577 10.9038 19.36 11.0063V12.0963C19.3603 12.6739 19.5898 13.2278 19.998 13.6365C20.4062 14.0452 20.9599 14.2753 21.5375 14.2763L21.7375 14.2773ZM20.1515 16.725C19.8347 16.7346 19.5232 16.8085 19.2358 16.9423C18.9485 17.0761 18.6914 17.267 18.4802 17.5033L17.4785 18.6178L19.5345 20.9048H25.04L21.9823 17.5023C21.9475 17.4635 21.911 17.4245 21.874 17.3898C21.6476 17.1671 21.3779 16.9933 21.0816 16.879C20.7854 16.7646 20.4688 16.7122 20.1515 16.725ZM10.3092 12.896C9.75803 12.896 9.2192 12.7326 8.76088 12.4263C8.30256 12.1201 7.94534 11.6848 7.7344 11.1756C7.52346 10.6663 7.46826 10.1059 7.5758 9.56531C7.68334 9.02468 7.94877 8.52809 8.33854 8.13832C8.72831 7.74855 9.22491 7.48311 9.76553 7.37557C10.3062 7.26804 10.8665 7.32323 11.3758 7.53417C11.885 7.74511 12.3203 8.10233 12.6266 8.56065C12.9328 9.01897 13.0962 9.55781 13.0962 10.109C13.0955 10.8479 12.8016 11.5564 12.2791 12.0789C11.7566 12.6013 11.0482 12.8952 10.3092 12.896ZM10.3092 12.021C10.6874 12.0211 11.0571 11.909 11.3716 11.6989C11.686 11.4889 11.9311 11.1903 12.0759 10.8409C12.2206 10.4915 12.2585 10.1071 12.1848 9.73616C12.111 9.36525 11.929 9.02455 11.6616 8.75712C11.3942 8.4897 11.0535 8.30758 10.6826 8.23378C10.3117 8.15998 9.92725 8.19783 9.57787 8.34254C9.22848 8.48725 8.92985 8.73231 8.71975 9.04675C8.50964 9.36118 8.3975 9.73085 8.3975 10.109C8.3981 10.6159 8.59969 11.1018 8.95808 11.4603C9.31647 11.8187 9.80238 12.0204 10.3092 12.021Z" fill="url(#paint0_linear_31_1370)"/>
<defs>
<linearGradient id="paint0_linear_31_1370" x1="15.9989" y1="7.32536" x2="15.9989" y2="24.6807" gradientUnits="userSpaceOnUse">
<stop stop-color="#AA790F"/>
<stop offset="0.635417" stop-color="#EFD873"/>
<stop offset="1" stop-color="#DDBD53"/>
</linearGradient>
</defs>
</svg>
