<svg width="70" height="70" viewBox="0 0 70 70" fill="none" xmlns="http://www.w3.org/2000/svg">
<g clip-path="url(#clip0_94_3239)">
<path d="M25.8975 26.9197C21.4026 26.9197 17.4533 29.9498 16.2936 34.2877C16.0104 35.345 16.156 36.4494 16.7038 37.3977C18.5324 40.5579 23.2909 39.9076 24.2177 36.3827C24.808 34.4559 27.6025 34.8395 27.6439 36.8612C27.5049 39.4119 21.7625 40.2066 21.8001 47.4077C21.8 49.6671 23.6381 51.5052 25.8975 51.5052C28.1571 51.5052 29.9952 49.6671 29.9952 47.4077C29.9952 46.5463 30.5413 46.0317 31.5064 45.1963C39.1726 39.8528 36.2268 27.234 25.8975 26.9197ZM29.7186 43.1308C28.6249 44.0776 27.2635 45.2559 27.2635 47.4075C27.2635 48.1607 26.6508 48.7734 25.8975 48.7734C25.1444 48.7734 24.5317 48.1607 24.5317 47.4075C24.5317 44.0298 26.0368 42.7269 27.9425 41.0772C29.0266 40.1388 30.3755 38.9712 30.3755 36.8609C30.3755 34.3917 28.3667 32.383 25.8975 32.383C23.8832 32.3824 22.1002 33.7454 21.5754 35.6887C21.0583 37.4279 18.5226 36.7665 18.9323 34.9937C19.7732 31.8481 22.6374 29.6511 25.8974 29.6511C29.8727 29.6511 33.1071 32.8853 33.1071 36.8608C33.1072 40.1974 31.6119 41.4919 29.7186 43.1308Z" fill="url(#paint0_linear_94_3239)"/>
<path d="M25.8984 52.8708C23.639 52.8708 21.8008 54.709 21.8008 56.9684C22.0068 62.397 29.7908 62.3955 29.9959 56.9684C29.9959 54.709 28.1578 52.8708 25.8984 52.8708ZM25.8984 58.3343C25.1452 58.3343 24.5325 57.7216 24.5325 56.9684C24.6012 55.1589 27.1958 55.1595 27.2642 56.9684C27.2642 57.7216 26.6515 58.3343 25.8984 58.3343Z" fill="url(#paint1_linear_94_3239)"/>
<path d="M67.4707 28.6036C74.7854 16.1523 65.3141 -0.169951 50.8552 0.0122543C40.4627 0.0121177 31.9799 8.34603 31.7388 18.6819C9.79742 13.6495 -7.80301 37.6129 3.55463 57.0306C2.89615 59.4848 2.23767 61.9392 1.57906 64.3972C1.27215 65.5488 1.59559 66.7357 2.44433 67.5722C3.28146 68.3971 4.49912 68.7137 5.625 68.4004C8.06933 67.7453 10.5131 67.0897 12.9575 66.434C32.3846 77.7957 56.3391 60.1852 51.3077 38.2508C54.483 38.1762 57.5801 37.3165 60.326 35.7487C62.0399 36.2085 63.7538 36.6683 65.4679 37.1276C66.4109 37.3895 67.4307 37.1245 68.1318 36.4338C68.843 35.7328 69.1141 34.7381 68.8565 33.771C68.3947 32.0475 67.9328 30.3255 67.4707 28.6036ZM25.9967 67.2124C21.7063 67.2124 17.5149 66.0326 13.8759 63.8006C13.659 63.6676 13.4116 63.599 13.1617 63.599C10.3871 64.2094 7.65343 65.0718 4.89372 65.7683C4.45596 65.8755 4.1186 65.5012 4.2183 65.1024C4.92636 62.46 5.63456 59.8202 6.34289 57.1803C6.44014 56.8181 6.38414 56.432 6.188 56.1122C-3.33229 41.0195 8.12656 20.5412 25.9972 20.7734C56.7547 21.9407 56.7542 66.0469 25.9967 67.2124ZM64.6834 28.7567C65.195 30.6633 65.7064 32.5698 66.2211 34.4795C66.2182 34.4855 66.207 34.4955 66.1996 34.4956C64.2929 33.9842 62.3857 33.473 60.4791 32.9612C60.1166 32.8641 59.7308 32.9201 59.411 33.1161C56.7519 34.7483 53.663 35.5843 50.5283 35.5208C47.9288 28.0145 41.9749 22.0607 34.4687 19.4611C34.8905 -2.47401 66.39 -2.78051 67.2459 19.1341C67.2459 22.1623 66.4134 25.1204 64.8384 27.6885C64.6421 28.0082 64.5861 28.3945 64.6834 28.7567Z" fill="url(#paint2_linear_94_3239)"/>
<path d="M44.0266 17.7681C43.2719 17.7675 42.6602 18.3793 42.6602 19.1339C42.7272 20.9433 45.3256 20.9437 45.3924 19.1339C45.3924 18.3796 44.7808 17.7681 44.0266 17.7681Z" fill="url(#paint3_linear_94_3239)"/>
<path d="M50.8557 17.7681C50.101 17.7674 49.4893 18.3792 49.4893 19.1339C49.5563 20.9433 52.1547 20.9437 52.2215 19.1339C52.2215 18.3796 51.6099 17.7681 50.8557 17.7681Z" fill="url(#paint4_linear_94_3239)"/>
<path d="M57.6857 17.7681C56.9311 17.7674 56.3193 18.3792 56.3193 19.1339C56.3864 20.9433 58.9848 20.9437 59.0516 19.1339C59.0516 18.3796 58.44 17.7681 57.6857 17.7681Z" fill="url(#paint5_linear_94_3239)"/>
</g>
<defs>
<linearGradient id="paint0_linear_94_3239" x1="25.9883" y1="26.9244" x2="25.9883" y2="51.5094" gradientUnits="userSpaceOnUse">
<stop stop-color="#AA790F"/>
<stop offset="0.635417" stop-color="#EFD873"/>
<stop offset="1" stop-color="#DDBD53"/>
</linearGradient>
<linearGradient id="paint1_linear_94_3239" x1="25.898" y1="52.8724" x2="25.898" y2="61.0407" gradientUnits="userSpaceOnUse">
<stop stop-color="#AA790F"/>
<stop offset="0.635417" stop-color="#EFD873"/>
<stop offset="1" stop-color="#DDBD53"/>
</linearGradient>
<linearGradient id="paint2_linear_94_3239" x1="34.9966" y1="0.0241997" x2="34.9966" y2="70.0014" gradientUnits="userSpaceOnUse">
<stop stop-color="#AA790F"/>
<stop offset="0.635417" stop-color="#EFD873"/>
<stop offset="1" stop-color="#DDBD53"/>
</linearGradient>
<linearGradient id="paint3_linear_94_3239" x1="44.0262" y1="17.7686" x2="44.0262" y2="20.4916" gradientUnits="userSpaceOnUse">
<stop stop-color="#AA790F"/>
<stop offset="0.635417" stop-color="#EFD873"/>
<stop offset="1" stop-color="#DDBD53"/>
</linearGradient>
<linearGradient id="paint4_linear_94_3239" x1="50.8553" y1="17.7686" x2="50.8553" y2="20.4916" gradientUnits="userSpaceOnUse">
<stop stop-color="#AA790F"/>
<stop offset="0.635417" stop-color="#EFD873"/>
<stop offset="1" stop-color="#DDBD53"/>
</linearGradient>
<linearGradient id="paint5_linear_94_3239" x1="57.6853" y1="17.7686" x2="57.6853" y2="20.4916" gradientUnits="userSpaceOnUse">
<stop stop-color="#AA790F"/>
<stop offset="0.635417" stop-color="#EFD873"/>
<stop offset="1" stop-color="#DDBD53"/>
</linearGradient>
<clipPath id="clip0_94_3239">
<rect width="70" height="70" fill="white"/>
</clipPath>
</defs>
</svg>
