<svg width="24" height="25" viewBox="0 0 24 25" fill="none" xmlns="http://www.w3.org/2000/svg">
<path d="M11.9635 12.3153C13.535 11.4158 14.6087 9.74103 14.6087 7.80432C14.6087 4.92745 12.2682 2.58691 9.3913 2.58691C6.51443 2.58691 4.17389 4.92745 4.17389 7.80432C4.17389 9.74103 5.24763 11.4158 6.81911 12.3153C2.88836 13.3473 0 16.6708 0 20.6099V21.8913C0 22.1793 0.233755 22.413 0.521755 22.413C0.809755 22.413 1.04351 22.1793 1.04351 21.8913V20.6099C1.04346 16.4266 4.78854 13.0217 9.3913 13.0217C13.9941 13.0217 17.7391 16.4266 17.7391 20.6099V21.8913C17.7391 22.1793 17.9729 22.413 18.2609 22.413C18.5489 22.413 18.7826 22.1793 18.7826 21.8913V20.6099C18.7826 16.6708 15.8942 13.3463 11.9635 12.3153ZM5.2174 7.80432C5.2174 5.50242 7.0894 3.63042 9.3913 3.63042C11.6932 3.63042 13.5652 5.50242 13.5652 7.80432C13.5652 10.1062 11.6932 11.9782 9.3913 11.9782C7.0894 11.9782 5.2174 10.1063 5.2174 7.80432Z" fill="url(#paint0_linear_31_707)"/>
<path d="M18.9892 12.3288C20.1203 11.5806 20.8696 10.3013 20.8696 8.84772C20.8696 6.54583 18.9976 4.67383 16.6957 4.67383C16.4077 4.67383 16.174 4.90758 16.174 5.19558C16.174 5.48358 16.4077 5.71734 16.6957 5.71734C18.4216 5.71734 19.8261 7.12188 19.8261 8.84777C19.8261 10.5737 18.4216 11.9782 16.6957 11.9782C16.4077 11.9782 16.174 12.212 16.174 12.5C16.174 12.788 16.4077 13.0216 16.6957 13.0216C20.1485 13.0216 22.9565 15.6167 22.9565 18.8077V19.8042C22.9565 20.0922 23.1903 20.3259 23.4783 20.3259C23.7663 20.3259 24 20.0922 24 19.8042V18.8077C24 15.792 21.8964 13.2303 18.9892 12.3288Z" fill="url(#paint1_linear_31_707)"/>
<defs>
<linearGradient id="paint0_linear_31_707" x1="9.39041" y1="2.59073" x2="9.39041" y2="22.4164" gradientUnits="userSpaceOnUse">
<stop stop-color="#AA790F"/>
<stop offset="0.635417" stop-color="#EFD873"/>
<stop offset="1" stop-color="#DDBD53"/>
</linearGradient>
<linearGradient id="paint1_linear_31_707" x1="20.0866" y1="4.67684" x2="20.0866" y2="20.3286" gradientUnits="userSpaceOnUse">
<stop stop-color="#AA790F"/>
<stop offset="0.635417" stop-color="#EFD873"/>
<stop offset="1" stop-color="#DDBD53"/>
</linearGradient>
</defs>
</svg>
