<svg width="44" height="46" viewBox="0 0 44 46" fill="none" xmlns="http://www.w3.org/2000/svg">
<path d="M32.7444 0.737061H11.2556C9.46528 0.737061 8 2.08937 8 3.74445V42.2541C8 43.9091 9.46528 45.2627 11.2556 45.2627H32.7444C34.5347 45.2627 36 43.9117 36 42.2553V3.74445C36 2.08937 34.5347 0.737061 32.7444 0.737061ZM18.5627 2.90482H25.4373C25.6549 2.90482 25.8312 3.06766 25.8312 3.26994C25.8312 3.47094 25.6549 3.63377 25.4373 3.63377H18.5627C18.3451 3.63377 18.1688 3.47094 18.1688 3.26994C18.1688 3.06766 18.3451 2.90482 18.5627 2.90482ZM22 43.759C21.1007 43.759 20.3722 43.0861 20.3722 42.2541C20.3722 41.4221 21.1007 40.7504 22 40.7504C22.8993 40.7504 23.6278 41.4221 23.6278 42.2541C23.6278 43.0861 22.8993 43.759 22 43.759ZM33.7346 39.697H10.2654V5.5064H33.7346V39.697Z" fill="url(#paint0_linear_140_284)"/>
<defs>
<linearGradient id="paint0_linear_140_284" x1="21.9986" y1="0.745623" x2="21.9986" y2="45.2703" gradientUnits="userSpaceOnUse">
<stop stop-color="#AA790F"/>
<stop offset="0.635417" stop-color="#EFD873"/>
<stop offset="1" stop-color="#DDBD53"/>
</linearGradient>
</defs>
</svg>
