<svg width="70" height="70" viewBox="0 0 70 70" fill="none" xmlns="http://www.w3.org/2000/svg">
<g clip-path="url(#clip0_94_3283)">
<path d="M35 4.75024C34.7462 4.75039 34.5029 4.85127 34.3234 5.03071C34.144 5.21016 34.0431 5.4535 34.043 5.70728V53.1487C34.043 53.4025 34.1438 53.6459 34.3233 53.8254C34.5028 54.0049 34.7462 54.1057 35 54.1057C35.2538 54.1057 35.4972 54.0049 35.6767 53.8254C35.8562 53.6459 35.957 53.4025 35.957 53.1487V5.70728C35.9569 5.4535 35.856 5.21016 35.6766 5.03071C35.4971 4.85127 35.2538 4.75039 35 4.75024Z" fill="url(#paint0_linear_94_3283)"/>
<path d="M69.8147 34.8266L65.4397 28.8619C65.3508 28.7407 65.2346 28.6422 65.1005 28.5743C64.9665 28.5063 64.8183 28.4709 64.668 28.4709H41.2891V3.68977C41.2875 2.71138 40.8981 1.77355 40.2061 1.08189C39.5141 0.390218 38.5761 0.0011569 37.5977 0L32.4024 0C31.4237 0.00115784 30.4855 0.390445 29.7935 1.08247C29.1014 1.77449 28.7122 2.71274 28.711 3.69141V12.0646H5.33209C5.1818 12.0646 5.03361 12.1 4.89954 12.1679C4.76548 12.2358 4.64931 12.3344 4.56045 12.4556L0.185453 18.4204C0.064969 18.5845 0 18.7828 0 18.9864C0 19.19 0.064969 19.3883 0.185453 19.5524L4.56045 25.5172C4.64931 25.6384 4.76548 25.737 4.89954 25.8049C5.03361 25.8729 5.1818 25.9082 5.33209 25.9082H28.711V56.9434H23.7208C22.0172 56.9454 20.3839 57.623 19.1793 58.8277C17.9747 60.0323 17.297 61.6655 17.295 63.3691V69.0413C17.295 69.2952 17.3958 69.5386 17.5753 69.718C17.7548 69.8975 17.9982 69.9984 18.252 69.9984H51.7481C51.8738 69.9984 51.9983 69.9737 52.1144 69.9257C52.2306 69.8776 52.3361 69.8071 52.425 69.7182C52.5139 69.6293 52.5844 69.5238 52.6324 69.4077C52.6805 69.2915 52.7052 69.167 52.7051 69.0413V63.3691C52.703 61.6656 52.0253 60.0324 50.8207 58.8278C49.6161 57.6232 47.9829 56.9455 46.2794 56.9434H41.2891V42.3145H64.668C64.8183 42.3144 64.9665 42.279 65.1005 42.211C65.2346 42.1431 65.3508 42.0446 65.4397 41.9234L69.8147 35.9587C69.9352 35.7945 70.0001 35.5963 70.0001 35.3927C70.0001 35.1891 69.9352 34.9908 69.8147 34.8266ZM5.81717 23.9941L2.14381 18.9864L5.81717 13.9787H28.711V23.9941H5.81717ZM50.7911 63.3691V68.0859H19.209V63.3708C19.2104 62.1746 19.6861 61.0278 20.5319 60.182C21.3778 59.3361 22.5246 58.8604 23.7208 58.8591H46.2794C47.4753 58.8604 48.6218 59.3359 49.4676 60.1814C50.3134 61.0268 50.7893 62.1732 50.7911 63.3691ZM30.6251 56.9434V3.68977C30.6261 3.21885 30.8137 2.76753 31.1469 2.43469C31.48 2.10186 31.9315 1.91464 32.4024 1.91406H37.5977C38.0686 1.91464 38.5201 2.10186 38.8533 2.43469C39.1864 2.76753 39.3741 3.21885 39.3751 3.68977V56.9434H30.6251ZM64.183 40.4004H41.2891V30.3849H64.183L67.8563 35.3927L64.183 40.4004Z" fill="url(#paint1_linear_94_3283)"/>
<path d="M62.4531 32.8459H44.707C44.4532 32.8459 44.2098 32.9468 44.0303 33.1263C43.8508 33.3057 43.75 33.5492 43.75 33.803V36.9825C43.7499 37.1082 43.7746 37.2327 43.8227 37.3488C43.8708 37.465 43.9413 37.5705 44.0301 37.6594C44.119 37.7483 44.2246 37.8188 44.3407 37.8668C44.4569 37.9149 44.5813 37.9396 44.707 37.9395H62.4531C62.6034 37.9395 62.7516 37.9041 62.8856 37.8361C63.0197 37.7682 63.1359 37.6697 63.2248 37.5485L64.3913 35.9588C64.5117 35.7946 64.5767 35.5963 64.5767 35.3927C64.5767 35.1891 64.5117 34.9909 64.3913 34.8267L63.2248 33.237C63.1359 33.1158 63.0197 33.0173 62.8856 32.9494C62.7516 32.8814 62.6034 32.846 62.4531 32.8459ZM61.9686 36.0255H45.6641V34.76H61.9664L62.4302 35.3927L61.9686 36.0255Z" fill="url(#paint2_linear_94_3283)"/>
<path d="M25.2927 16.4397H7.54665C7.39637 16.4398 7.24823 16.4752 7.11419 16.5432C6.98014 16.6111 6.86395 16.7096 6.77501 16.8307L5.61071 18.4205C5.49055 18.5847 5.42578 18.783 5.42578 18.9865C5.42578 19.19 5.49055 19.3882 5.61071 19.5525L6.77719 21.1423C6.86605 21.2635 6.98222 21.3621 7.11628 21.43C7.25035 21.4979 7.39854 21.5333 7.54884 21.5333H25.2927C25.5466 21.5333 25.79 21.4325 25.9695 21.253C26.1489 21.0735 26.2498 20.8301 26.2498 20.5763V17.3967C26.2496 17.143 26.1488 16.8996 25.9693 16.7202C25.7899 16.5407 25.5465 16.4398 25.2927 16.4397ZM24.3357 19.6192H8.03337L7.56962 18.9865L8.03337 18.3538H24.3357V19.6192Z" fill="url(#paint3_linear_94_3283)"/>
<path d="M47.3994 10.121H50.7299C50.9837 10.121 51.2271 10.0201 51.4066 9.84065C51.5861 9.66117 51.6869 9.41775 51.6869 9.16393C51.6867 8.81953 51.7584 8.47888 51.8974 8.16378C52.0365 7.84867 52.2397 7.56606 52.4942 7.33401C52.7487 7.10196 53.0488 6.92559 53.3754 6.81618C53.7019 6.70677 54.0477 6.66672 54.3907 6.69862C55.0247 6.78152 55.6055 7.09679 56.0204 7.58335C56.4353 8.06992 56.6549 8.69316 56.6367 9.33237C56.6363 9.36956 56.6213 9.40512 56.5951 9.43147C56.5688 9.45783 56.5333 9.47289 56.4961 9.47346H55.4106C54.3844 9.47462 53.4005 9.88271 52.6748 10.6082C51.9491 11.3338 51.5407 12.3175 51.5393 13.3437V16.491C51.5392 16.6167 51.5639 16.7411 51.612 16.8573C51.66 16.9734 51.7305 17.079 51.8194 17.1678C51.9083 17.2567 52.0138 17.3272 52.13 17.3753C52.2461 17.4234 52.3706 17.4481 52.4963 17.448H55.8273C55.953 17.4481 56.0775 17.4234 56.1936 17.3753C56.3098 17.3272 56.4153 17.2567 56.5042 17.1678C56.5931 17.079 56.6636 16.9734 56.7116 16.8573C56.7597 16.7411 56.7844 16.6167 56.7843 16.491V14.7109C58.1601 14.6353 59.4548 14.0359 60.4026 13.0358C61.3505 12.0358 61.8795 10.7108 61.8812 9.33291C61.8916 7.38405 61.1774 5.50086 59.8773 4.04903C58.5771 2.5972 56.7839 1.68035 54.8457 1.47651C53.7788 1.38224 52.7039 1.51091 51.6894 1.85433C50.6749 2.19775 49.7429 2.74843 48.9527 3.47137C48.1624 4.19431 47.5311 5.07371 47.099 6.05371C46.6668 7.03371 46.4432 8.09288 46.4424 9.16393C46.4423 9.28963 46.467 9.41411 46.5151 9.53025C46.5632 9.6464 46.6336 9.75193 46.7225 9.84081C46.8114 9.92969 46.9169 10.0002 47.0331 10.0483C47.1492 10.0963 47.2737 10.121 47.3994 10.121ZM54.6794 3.38072C56.142 3.54032 57.493 4.23776 58.4702 5.33761C59.4473 6.43745 59.9808 7.8612 59.9671 9.33237C59.9661 10.2527 59.6001 11.135 58.9494 11.7858C58.2987 12.4366 57.4164 12.8028 56.4961 12.8039H55.8273C55.7016 12.8039 55.5771 12.8286 55.461 12.8766C55.3448 12.9247 55.2393 12.9952 55.1504 13.0841C55.0615 13.173 54.991 13.2785 54.943 13.3946C54.8949 13.5108 54.8702 13.6353 54.8703 13.761V15.5345H53.4533V13.347C53.454 12.8281 53.6605 12.3308 54.0274 11.964C54.3943 11.5972 54.8918 11.3908 55.4106 11.3903H56.4961C57.041 11.3897 57.5633 11.1729 57.9485 10.7876C58.3337 10.4023 58.5503 9.87993 58.5507 9.3351C58.5663 8.21826 58.1664 7.13546 57.4288 6.29676C56.6911 5.45805 55.6682 4.92323 54.5586 4.79604C53.4967 4.6997 52.436 4.9931 51.5746 5.62145C50.7132 6.2498 50.1099 7.17016 49.8773 8.21072H48.4363C48.6774 6.76739 49.4543 5.46819 50.6117 4.57276C51.7691 3.67734 53.2218 3.25163 54.6794 3.38072Z" fill="url(#paint4_linear_94_3283)"/>
<path d="M55.8281 18.3247H52.4971C52.3714 18.3246 52.2469 18.3493 52.1307 18.3974C52.0146 18.4455 51.9091 18.516 51.8202 18.6049C51.7313 18.6937 51.6608 18.7993 51.6127 18.9154C51.5647 19.0316 51.54 19.156 51.54 19.2817V22.4875C51.54 22.6132 51.5647 22.7377 51.6127 22.8538C51.6608 22.97 51.7313 23.0755 51.8202 23.1644C51.9091 23.2533 52.0146 23.3238 52.1307 23.3718C52.2469 23.4199 52.3714 23.4446 52.4971 23.4446H55.8281C55.9538 23.4446 56.0783 23.4199 56.1944 23.3718C56.3106 23.3238 56.4161 23.2533 56.505 23.1644C56.5939 23.0755 56.6643 22.97 56.7124 22.8538C56.7605 22.7377 56.7852 22.6132 56.7851 22.4875V19.2817C56.7852 19.156 56.7605 19.0316 56.7124 18.9154C56.6643 18.7993 56.5939 18.6937 56.505 18.6049C56.4161 18.516 56.3106 18.4455 56.1944 18.3974C56.0783 18.3493 55.9538 18.3246 55.8281 18.3247ZM54.8711 21.5305H53.4541V20.2388H54.8711V21.5305Z" fill="url(#paint5_linear_94_3283)"/>
<path d="M15.5416 36.8277C16.1757 36.9105 16.7565 37.2257 17.1715 37.7123C17.5864 38.1989 17.806 38.8222 17.7876 39.4614C17.7872 39.4987 17.7722 39.5342 17.7458 39.5605C17.7194 39.5868 17.6838 39.6017 17.6465 39.602H16.5615C15.5351 39.6031 14.5511 40.0114 13.8254 40.7371C13.0996 41.4629 12.6914 42.4469 12.6902 43.4733V46.62C12.6901 46.7458 12.7147 46.8704 12.7627 46.9866C12.8108 47.1028 12.8812 47.2085 12.9701 47.2974C13.059 47.3864 13.1645 47.457 13.2807 47.5052C13.3969 47.5534 13.5215 47.5781 13.6472 47.5781H16.9777C17.2315 47.5781 17.4749 47.4773 17.6544 47.2978C17.8339 47.1184 17.9347 46.8749 17.9347 46.6211V44.8388C19.3106 44.7636 20.6055 44.1645 21.5535 43.1645C22.5015 42.1644 23.0306 40.8394 23.0321 39.4614C23.0429 37.5121 22.3288 35.6284 21.0285 34.176C19.7283 32.7237 17.9347 31.8064 15.9961 31.6023C14.929 31.5083 13.8541 31.6373 12.8395 31.981C11.825 32.3247 10.893 32.8757 10.1028 33.5988C9.31253 34.322 8.68133 35.2016 8.24922 36.1818C7.81712 37.1619 7.59357 38.2213 7.59277 39.2924C7.59292 39.5462 7.69379 39.7896 7.87324 39.969C8.05269 40.1484 8.29603 40.2493 8.5498 40.2495H11.8803C12.134 40.2493 12.3774 40.1484 12.5568 39.969C12.7363 39.7896 12.8372 39.5462 12.8373 39.2924C12.837 38.948 12.9087 38.6073 13.0477 38.2921C13.1867 37.9769 13.39 37.6943 13.6446 37.4623C13.8992 37.2302 14.1994 37.0539 14.5261 36.9447C14.8528 36.8354 15.1986 36.7955 15.5416 36.8277ZM11.0266 38.336H9.58668C9.8289 36.8934 10.6062 35.5952 11.7634 34.7005C12.9207 33.8058 14.3727 33.3804 15.8298 33.5092C17.2925 33.6691 18.6436 34.3667 19.6208 35.4667C20.5981 36.5667 21.1317 37.9906 21.1181 39.462C21.1169 40.3823 20.7508 41.2646 20.1 41.9153C19.4492 42.566 18.5668 42.932 17.6465 42.933H16.9777C16.7239 42.933 16.4805 43.0338 16.301 43.2133C16.1215 43.3928 16.0207 43.6362 16.0207 43.89V45.6641H14.6043V43.4766C14.6048 42.9577 14.8112 42.4602 15.1782 42.0932C15.5451 41.7263 16.0426 41.5199 16.5615 41.5193H17.6465C18.1913 41.5187 18.7136 41.3021 19.0989 40.9169C19.4842 40.5318 19.701 40.0095 19.7017 39.4647C19.7172 38.3479 19.3174 37.2651 18.5797 36.4264C17.8421 35.5877 16.8192 35.0528 15.7095 34.9256C14.6479 34.8286 13.5873 35.1211 12.7256 35.7487C11.8639 36.3762 11.26 37.2958 11.0266 38.336Z" fill="url(#paint6_linear_94_3283)"/>
<path d="M17.9379 52.6159V49.4102C17.9379 49.1563 17.8371 48.9129 17.6576 48.7334C17.4781 48.554 17.2347 48.4531 16.9809 48.4531H13.6504C13.3966 48.4531 13.1531 48.554 12.9737 48.7334C12.7942 48.9129 12.6934 49.1563 12.6934 49.4102V52.6159C12.6934 52.8698 12.7942 53.1132 12.9737 53.2927C13.1531 53.4721 13.3966 53.573 13.6504 53.573H16.9809C17.2347 53.573 17.4781 53.4721 17.6576 53.2927C17.8371 53.1132 17.9379 52.8698 17.9379 52.6159ZM16.0238 51.6589H14.6074V50.3672H16.0238V51.6589Z" fill="url(#paint7_linear_94_3283)"/>
</g>
<defs>
<linearGradient id="paint0_linear_94_3283" x1="34.9999" y1="4.75974" x2="34.9999" y2="54.1141" gradientUnits="userSpaceOnUse">
<stop stop-color="#AA790F"/>
<stop offset="0.635417" stop-color="#EFD873"/>
<stop offset="1" stop-color="#DDBD53"/>
</linearGradient>
<linearGradient id="paint1_linear_94_3283" x1="34.9967" y1="0.0134612" x2="34.9967" y2="70.0102" gradientUnits="userSpaceOnUse">
<stop stop-color="#AA790F"/>
<stop offset="0.635417" stop-color="#EFD873"/>
<stop offset="1" stop-color="#DDBD53"/>
</linearGradient>
<linearGradient id="paint2_linear_94_3283" x1="54.1623" y1="32.8469" x2="54.1623" y2="37.9404" gradientUnits="userSpaceOnUse">
<stop stop-color="#AA790F"/>
<stop offset="0.635417" stop-color="#EFD873"/>
<stop offset="1" stop-color="#DDBD53"/>
</linearGradient>
<linearGradient id="paint3_linear_94_3283" x1="15.8368" y1="16.4407" x2="15.8368" y2="21.5342" gradientUnits="userSpaceOnUse">
<stop stop-color="#AA790F"/>
<stop offset="0.635417" stop-color="#EFD873"/>
<stop offset="1" stop-color="#DDBD53"/>
</linearGradient>
<linearGradient id="paint4_linear_94_3283" x1="54.1611" y1="1.44961" x2="54.1611" y2="17.4507" gradientUnits="userSpaceOnUse">
<stop stop-color="#AA790F"/>
<stop offset="0.635417" stop-color="#EFD873"/>
<stop offset="1" stop-color="#DDBD53"/>
</linearGradient>
<linearGradient id="paint5_linear_94_3283" x1="54.1623" y1="18.3257" x2="54.1623" y2="23.4454" gradientUnits="userSpaceOnUse">
<stop stop-color="#AA790F"/>
<stop offset="0.635417" stop-color="#EFD873"/>
<stop offset="1" stop-color="#DDBD53"/>
</linearGradient>
<linearGradient id="paint6_linear_94_3283" x1="15.3118" y1="31.5756" x2="15.3118" y2="47.5809" gradientUnits="userSpaceOnUse">
<stop stop-color="#AA790F"/>
<stop offset="0.635417" stop-color="#EFD873"/>
<stop offset="1" stop-color="#DDBD53"/>
</linearGradient>
<linearGradient id="paint7_linear_94_3283" x1="15.3154" y1="48.4541" x2="15.3154" y2="53.5738" gradientUnits="userSpaceOnUse">
<stop stop-color="#AA790F"/>
<stop offset="0.635417" stop-color="#EFD873"/>
<stop offset="1" stop-color="#DDBD53"/>
</linearGradient>
<clipPath id="clip0_94_3283">
<rect width="70" height="70" fill="white"/>
</clipPath>
</defs>
</svg>
