<svg width="32" height="32" viewBox="0 0 32 32" fill="none" xmlns="http://www.w3.org/2000/svg">
<path d="M25 13.2751V13.7751C25 14.0251 24.8 14.2251 24.55 14.2251C24.3 14.2251 24.1 14.0251 24.1 13.7751V13.2751C24.1 13.0251 24.3 12.8251 24.55 12.8251C24.8 12.8251 25 13.0501 25 13.2751ZM24.725 6.6501H23.425L23.05 5.7501C22.975 5.5751 22.825 5.4751 22.65 5.4751H21.725C21.475 5.4751 21.275 5.6751 21.275 5.9251V12.8001C21.275 13.8251 20.7 13.8251 20.5 13.8251C20.15 13.8251 19.7 13.8251 19.625 11.8251C19.625 11.6751 19.625 11.4001 19.625 11.1751C19.625 10.0251 18.7 9.1001 17.55 9.1001H17.275C16.3 9.1001 15.5 9.9001 15.5 10.8751C15.5 11.4251 15.05 11.8751 14.5 11.8751H14.1C13.55 11.8501 13.1 11.4001 13.1 10.8251C13.075 9.8751 12.275 9.1001 11.325 9.1001H11.05C9.925 9.1001 9 10.0251 8.975 11.1501C8.95 11.3251 9.05 12.1001 8.475 12.9501C7.675 14.1251 7.675 15.1251 7.675 16.0251C7.675 17.3001 6.7 18.3751 5.425 18.4251C5.175 18.4251 5 18.6251 5 18.8751C5 19.1251 5.2 19.3001 5.45 19.3001C5.475 19.3001 6.7 19.3251 7.675 18.2751V25.9251C7.675 26.1751 7.875 26.3501 8.1 26.3751H9.9C10.15 26.3751 10.325 26.1751 10.35 25.9501V21.6751C11.675 21.4751 12.725 20.4251 12.925 19.1001H16.525V25.9751C16.525 26.2251 16.725 26.4001 16.95 26.4251H18.75C19 26.4251 19.175 26.2251 19.2 26.0001V21.4001C20.25 20.8751 20.9 19.8251 20.925 18.6501V18.4251H21.7C23.175 18.4251 24.375 17.4501 24.8 15.8501C24.875 15.6251 24.725 15.3751 24.5 15.3251C24.275 15.2751 24.025 15.4001 23.975 15.6251C23.65 16.8251 22.8 17.5501 21.725 17.5501H20.525C20.275 17.5501 20.075 17.7501 20.075 18.0001V18.6501C20.075 19.5501 19.5 20.3751 18.65 20.7001C18.475 20.7751 18.375 20.9251 18.375 21.1001V25.5251H17.45V18.6501C17.45 18.4001 17.25 18.2001 17 18.2001H12.575C12.325 18.2001 12.125 18.4001 12.125 18.6501C12.125 19.8501 11.15 20.8251 9.95 20.8251C9.7 20.8251 9.525 21.0251 9.5 21.2501V25.5001H8.575V15.5501C8.575 14.8001 8.8 14.0751 9.225 13.4751C9.95 12.4001 9.85 11.3501 9.875 11.2001C9.875 10.5501 10.4 10.0001 11.075 10.0001H11.35C11.85 10.0001 12.225 10.4001 12.25 10.8751C12.25 11.9001 13.075 12.7501 14.125 12.7751H14.525C15.55 12.7751 16.4 11.9251 16.4 10.9001C16.4 10.4001 16.8 10.0001 17.3 10.0001H17.575C18.225 10.0001 18.775 10.5501 18.775 11.2001C18.775 12.9251 18.875 14.7001 20.525 14.7001C21.525 14.7001 22.175 13.9751 22.175 12.8001V6.3501H22.375L22.75 7.2501C22.825 7.4251 22.975 7.5251 23.15 7.5251H24.75C25.725 7.5251 26.525 8.3251 26.525 9.3001C26.525 9.4501 26.4 9.6001 26.225 9.6001H24.6C24.35 9.6001 24.175 9.8001 24.15 10.0501V11.2001C24.15 11.4501 24.35 11.6501 24.6 11.6501C24.85 11.6501 25.05 11.4501 25.05 11.2001V10.4751H26.25C26.9 10.4751 27.425 9.9501 27.425 9.3001C27.375 7.8501 26.175 6.6501 24.725 6.6501Z" fill="url(#paint0_linear_31_1321)"/>
<defs>
<linearGradient id="paint0_linear_31_1321" x1="16.2114" y1="5.47913" x2="16.2114" y2="26.4286" gradientUnits="userSpaceOnUse">
<stop stop-color="#AA790F"/>
<stop offset="0.635417" stop-color="#EFD873"/>
<stop offset="1" stop-color="#DDBD53"/>
</linearGradient>
</defs>
</svg>
