<svg width="32" height="32" viewBox="0 0 32 32" fill="none" xmlns="http://www.w3.org/2000/svg">
<g clip-path="url(#clip0_31_1374)">
<path d="M8.93701 19.9358C8.67814 19.9358 8.46826 20.1456 8.46826 20.4045C8.46826 20.6635 8.67814 20.8733 8.93701 20.8733H9.06201C9.32089 20.8733 9.53076 20.6635 9.53076 20.4045C9.53076 20.1456 9.32089 19.9358 9.06201 19.9358H8.93701Z" fill="url(#paint0_linear_31_1374)"/>
<path d="M10.937 20.4983C10.6781 20.4983 10.4683 20.7081 10.4683 20.967C10.4683 21.226 10.6781 21.4358 10.937 21.4358H11.062C11.3209 21.4358 11.5308 21.226 11.5308 20.967C11.5308 20.7081 11.3209 20.4983 11.062 20.4983H10.937Z" fill="url(#paint1_linear_31_1374)"/>
<path d="M20.6245 18.9983H20.4995C20.2406 18.9983 20.0308 19.2081 20.0308 19.467C20.0308 19.726 20.2406 19.9358 20.4995 19.9358H20.6245C20.8834 19.9358 21.0933 19.726 21.0933 19.467C21.0933 19.2081 20.8834 18.9983 20.6245 18.9983Z" fill="url(#paint2_linear_31_1374)"/>
<path d="M21.1245 10.3733H20.9995C20.7406 10.3733 20.5308 10.5831 20.5308 10.842C20.5308 11.101 20.7406 11.3108 20.9995 11.3108H21.1245C21.3834 11.3108 21.5933 11.101 21.5933 10.842C21.5933 10.5831 21.3834 10.3733 21.1245 10.3733Z" fill="url(#paint3_linear_31_1374)"/>
<path d="M6.68701 13.0608C6.42814 13.0608 6.21826 13.2706 6.21826 13.5295C6.21826 13.7885 6.42814 13.9983 6.68701 13.9983H6.81201C7.07089 13.9983 7.28076 13.7885 7.28076 13.5295C7.28076 13.2706 7.07089 13.0608 6.81201 13.0608H6.68701Z" fill="url(#paint4_linear_31_1374)"/>
<path d="M10.062 13.9358H9.93701C9.67814 13.9358 9.46826 14.1456 9.46826 14.4045C9.46826 14.6635 9.67814 14.8733 9.93701 14.8733H10.062C10.3209 14.8733 10.5308 14.6635 10.5308 14.4045C10.5308 14.1456 10.3209 13.9358 10.062 13.9358Z" fill="url(#paint5_linear_31_1374)"/>
<path d="M16.687 14.4983C16.9459 14.4983 17.1558 14.2885 17.1558 14.0295C17.1558 13.7706 16.9459 13.5608 16.687 13.5608H16.562C16.3031 13.5608 16.0933 13.7706 16.0933 14.0295C16.0933 14.2885 16.3031 14.4983 16.562 14.4983H16.687Z" fill="url(#paint6_linear_31_1374)"/>
<path d="M4.06201 13.9983C3.80314 13.9983 3.59326 14.2081 3.59326 14.467C3.59326 14.726 3.80314 14.9358 4.06201 14.9358H4.18701C4.44589 14.9358 4.65576 14.726 4.65576 14.467C4.65576 14.2081 4.44589 13.9983 4.18701 13.9983H4.06201Z" fill="url(#paint7_linear_31_1374)"/>
<path d="M19.812 8.37329C19.5531 8.37329 19.3433 8.5831 19.3433 8.84204C19.3433 9.10098 19.5531 9.31079 19.812 9.31079H19.937C20.1959 9.31079 20.4058 9.10098 20.4058 8.84204C20.4058 8.5831 20.1959 8.37329 19.937 8.37329H19.812Z" fill="url(#paint8_linear_31_1374)"/>
<path d="M13.437 11.5608C13.1781 11.5608 12.9683 11.7706 12.9683 12.0295C12.9683 12.2885 13.1781 12.4983 13.437 12.4983H13.562C13.8209 12.4983 14.0308 12.2885 14.0308 12.0295C14.0308 11.7706 13.8209 11.5608 13.562 11.5608H13.437Z" fill="url(#paint9_linear_31_1374)"/>
<path d="M17.187 9.87329C16.9281 9.87329 16.7183 10.0831 16.7183 10.342C16.7183 10.601 16.9281 10.8108 17.187 10.8108H17.312C17.5709 10.8108 17.7808 10.601 17.7808 10.342C17.7808 10.0831 17.5709 9.87329 17.312 9.87329H17.187Z" fill="url(#paint10_linear_31_1374)"/>
<path d="M10.8745 10.9983C11.1334 10.9983 11.3433 10.7885 11.3433 10.5295C11.3433 10.2706 11.1334 10.0608 10.8745 10.0608H10.7495C10.4906 10.0608 10.2808 10.2706 10.2808 10.5295C10.2808 10.7885 10.4906 10.9983 10.7495 10.9983H10.8745Z" fill="url(#paint11_linear_31_1374)"/>
<path d="M31.6567 14.8725L27.7616 12.0504C27.1641 11.6174 26.5035 11.3177 25.8187 11.15L24.3743 9.65267C24.1945 9.46635 23.8978 9.46098 23.7115 9.64079C23.5252 9.82048 23.5199 10.1172 23.6997 10.3035L24.3647 10.9929C23.2671 11.0198 22.1757 11.3717 21.2389 12.0504L20.214 12.7929C18.6543 11.6756 16.5667 11.68 15.0114 12.8069L14.4417 13.2197C13.8237 13.6674 12.9932 13.6674 12.3752 13.2197L12.0066 12.9527C11.797 12.8007 11.5039 12.8475 11.352 13.0572C11.2 13.2669 11.2469 13.5599 11.4565 13.7119L11.8252 13.9789C12.7722 14.6651 14.0447 14.6651 14.9917 13.9789L15.5615 13.5661C16.7025 12.7394 18.2062 12.6784 19.4014 13.3818L16.5645 15.4372H1.16198L4.78854 12.8096C6.22366 11.7696 8.15598 11.646 9.71129 12.4945C9.93848 12.6184 10.2233 12.5349 10.3473 12.3075C10.4713 12.0803 10.3876 11.7956 10.1603 11.6715C9.47691 11.2987 8.73304 11.0827 7.97998 11.0185L9.32366 9.6256C9.64929 9.28798 10.087 9.10204 10.556 9.10204C11.025 9.10204 11.4627 9.28798 11.7884 9.6256C12.2924 10.148 12.9696 10.4357 13.6955 10.4357C14.4214 10.4357 15.0987 10.148 15.6027 9.6256L17.1084 8.06454C17.6939 7.4576 18.4809 7.12329 19.3242 7.12329C20.1675 7.12329 20.9544 7.4576 21.5399 8.06454L22.1807 8.72885C22.3604 8.91504 22.6572 8.92048 22.8435 8.74073C23.0298 8.56104 23.0351 8.26429 22.8554 8.07798L22.2145 7.41367C21.4508 6.62185 20.4242 6.18579 19.3241 6.18579C18.224 6.18579 17.1974 6.62185 16.4336 7.41367L14.9279 8.97473C14.6022 9.31229 14.1645 9.49823 13.6955 9.49823C13.2264 9.49823 12.7887 9.31229 12.4631 8.97473C11.9592 8.45229 11.2819 8.16454 10.556 8.16454C9.8301 8.16454 9.15279 8.45229 8.64885 8.97473L6.63098 11.0665C5.78035 11.2003 4.95748 11.5294 4.23835 12.0504L0.34335 14.8725C0.0511002 15.0844 -0.0705248 15.4573 0.0407877 15.8007C0.1521 16.144 0.469413 16.3747 0.83035 16.3747H31.1697C31.5305 16.3747 31.8479 16.1441 31.9592 15.8007C32.0705 15.4573 31.949 15.0844 31.6567 14.8725ZM18.1623 15.4372L21.7889 12.8095C23.4106 11.6345 25.5897 11.6344 27.2115 12.8095L30.8381 15.4372H18.1623Z" fill="url(#paint12_linear_31_1374)"/>
<path d="M24.938 12.8733H24.813C24.5541 12.8733 24.3442 13.0831 24.3442 13.342C24.3442 13.601 24.5541 13.8108 24.813 13.8108H24.938C25.1969 13.8108 25.4067 13.601 25.4067 13.342C25.4067 13.0831 25.1969 12.8733 24.938 12.8733Z" fill="url(#paint13_linear_31_1374)"/>
<path d="M27.0317 14.4045C27.0317 14.6635 27.2416 14.8733 27.5005 14.8733H27.6255C27.8844 14.8733 28.0942 14.6635 28.0942 14.4045C28.0942 14.1456 27.8844 13.9358 27.6255 13.9358H27.5005C27.2416 13.9358 27.0317 14.1456 27.0317 14.4045Z" fill="url(#paint14_linear_31_1374)"/>
<path d="M22.188 13.8108H22.063C21.8041 13.8108 21.5942 14.0206 21.5942 14.2795C21.5942 14.5385 21.8041 14.7483 22.063 14.7483H22.188C22.4469 14.7483 22.6567 14.5385 22.6567 14.2795C22.6567 14.0206 22.4469 13.8108 22.188 13.8108Z" fill="url(#paint15_linear_31_1374)"/>
<path d="M19.2495 20.3108H19.1245C18.8656 20.3108 18.6558 20.5206 18.6558 20.7795C18.6558 21.0385 18.8656 21.2483 19.1245 21.2483H19.2495C19.5084 21.2483 19.7183 21.0385 19.7183 20.7795C19.7183 20.5206 19.5084 20.3108 19.2495 20.3108Z" fill="url(#paint16_linear_31_1374)"/>
<path d="M22.187 20.3733C21.9281 20.3733 21.7183 20.5831 21.7183 20.842C21.7183 21.101 21.9281 21.3108 22.187 21.3108H22.312C22.5709 21.3108 22.7808 21.101 22.7808 20.842C22.7808 20.5831 22.5709 20.3733 22.312 20.3733H22.187Z" fill="url(#paint17_linear_31_1374)"/>
<path d="M16.937 19.9983H16.812C16.5531 19.9983 16.3433 20.2081 16.3433 20.467C16.3433 20.726 16.5531 20.9358 16.812 20.9358H16.937C17.1959 20.9358 17.4058 20.726 17.4058 20.467C17.4058 20.2081 17.1959 19.9983 16.937 19.9983Z" fill="url(#paint18_linear_31_1374)"/>
<path d="M29.687 21.9424H27.5736L22.8993 18.5557C20.9486 17.1422 18.3272 17.1422 16.3765 18.5557L13.7942 20.4267L13.6421 20.3166C13.4325 20.1646 13.1394 20.2114 12.9875 20.4211C12.8356 20.6307 12.8824 20.9238 13.0921 21.0757L14.2883 21.9425H5.25789L7.76107 20.1287C8.81676 19.3639 10.1914 19.2609 11.3486 19.8603C11.5786 19.9794 11.8614 19.8896 11.9804 19.6596C12.0995 19.4297 12.0096 19.1469 11.7798 19.0278C10.3059 18.2647 8.55532 18.3956 7.21101 19.3696L3.66007 21.9424H2.31201C2.05314 21.9424 1.84326 22.1522 1.84326 22.4112C1.84326 22.6701 2.05314 22.8799 2.31201 22.8799H29.687C29.9459 22.8799 30.1558 22.6701 30.1558 22.4112C30.1558 22.1522 29.9459 21.9424 29.687 21.9424ZM15.8862 21.9424L14.5932 21.0056L16.9266 19.3148C18.5484 18.1397 20.7276 18.1397 22.3494 19.3148L25.9759 21.9424H15.8862Z" fill="url(#paint19_linear_31_1374)"/>
<path d="M5.56201 10.3142H5.68701C5.94589 10.3142 6.15576 10.1044 6.15576 9.84546C6.15576 9.58652 5.94589 9.37671 5.68701 9.37671H5.56201C5.30314 9.37671 5.09326 9.58652 5.09326 9.84546C5.09326 10.1044 5.30314 10.3142 5.56201 10.3142Z" fill="url(#paint20_linear_31_1374)"/>
<path d="M6.93701 7.62671H7.06201C7.32089 7.62671 7.53076 7.4169 7.53076 7.15796C7.53076 6.89902 7.32089 6.68921 7.06201 6.68921H6.93701C6.67814 6.68921 6.46826 6.89902 6.46826 7.15796C6.46826 7.4169 6.67814 7.62671 6.93701 7.62671Z" fill="url(#paint21_linear_31_1374)"/>
<path d="M26.937 9.50171H27.062C27.3209 9.50171 27.5308 9.2919 27.5308 9.03296C27.5308 8.77402 27.3209 8.56421 27.062 8.56421H26.937C26.6781 8.56421 26.4683 8.77402 26.4683 9.03296C26.4683 9.2919 26.6781 9.50171 26.937 9.50171Z" fill="url(#paint22_linear_31_1374)"/>
<path d="M24.812 7.62671H24.937C25.1959 7.62671 25.4058 7.4169 25.4058 7.15796C25.4058 6.89902 25.1959 6.68921 24.937 6.68921H24.812C24.5531 6.68921 24.3433 6.89902 24.3433 7.15796C24.3433 7.4169 24.5531 7.62671 24.812 7.62671Z" fill="url(#paint23_linear_31_1374)"/>
<path d="M3.31201 8.93921H3.43701C3.69589 8.93921 3.90576 8.7294 3.90576 8.47046C3.90576 8.21152 3.69589 8.00171 3.43701 8.00171H3.31201C3.05314 8.00171 2.84326 8.21152 2.84326 8.47046C2.84326 8.7294 3.05314 8.93921 3.31201 8.93921Z" fill="url(#paint24_linear_31_1374)"/>
<path d="M29.6245 19.1892C29.8834 19.1892 30.0933 18.9794 30.0933 18.7205C30.0933 18.4615 29.8834 18.2517 29.6245 18.2517H26.687C26.4281 18.2517 26.2183 18.4615 26.2183 18.7205C26.2183 18.9794 26.4281 19.1892 26.687 19.1892H29.6245Z" fill="url(#paint25_linear_31_1374)"/>
<path d="M4.96826 18.7205C4.96826 18.4615 4.75839 18.2517 4.49951 18.2517H1.37451C1.11564 18.2517 0.905762 18.4615 0.905762 18.7205C0.905762 18.9794 1.11564 19.1892 1.37451 19.1892H4.49951C4.75839 19.1892 4.96826 18.9794 4.96826 18.7205Z" fill="url(#paint26_linear_31_1374)"/>
<path d="M10.8745 24.8767H7.74951C7.49064 24.8767 7.28076 25.0865 7.28076 25.3455C7.28076 25.6044 7.49064 25.8142 7.74951 25.8142H10.8745C11.1334 25.8142 11.3433 25.6044 11.3433 25.3455C11.3433 25.0865 11.1334 24.8767 10.8745 24.8767Z" fill="url(#paint27_linear_31_1374)"/>
<path d="M22.2495 24.8767H20.437C20.1781 24.8767 19.9683 25.0865 19.9683 25.3455C19.9683 25.6044 20.1781 25.8142 20.437 25.8142H22.2495C22.5084 25.8142 22.7183 25.6044 22.7183 25.3455C22.7183 25.0865 22.5084 24.8767 22.2495 24.8767Z" fill="url(#paint28_linear_31_1374)"/>
<path d="M13.062 24.8767H12.937C12.6781 24.8767 12.4683 25.0865 12.4683 25.3455C12.4683 25.6044 12.6781 25.8142 12.937 25.8142H13.062C13.3209 25.8142 13.5308 25.6044 13.5308 25.3455C13.5308 25.0865 13.3209 24.8767 13.062 24.8767Z" fill="url(#paint29_linear_31_1374)"/>
<path d="M16.562 24.8767H16.437C16.1781 24.8767 15.9683 25.0865 15.9683 25.3455C15.9683 25.6044 16.1781 25.8142 16.437 25.8142H16.562C16.8209 25.8142 17.0308 25.6044 17.0308 25.3455C17.0308 25.0865 16.8209 24.8767 16.562 24.8767Z" fill="url(#paint30_linear_31_1374)"/>
<path d="M24.8745 24.8767H24.7495C24.4906 24.8767 24.2808 25.0865 24.2808 25.3455C24.2808 25.6044 24.4906 25.8142 24.7495 25.8142H24.8745C25.1334 25.8142 25.3433 25.6044 25.3433 25.3455C25.3433 25.0865 25.1334 24.8767 24.8745 24.8767Z" fill="url(#paint31_linear_31_1374)"/>
</g>
<defs>
<linearGradient id="paint0_linear_31_1374" x1="8.99946" y1="19.936" x2="8.99946" y2="20.8734" gradientUnits="userSpaceOnUse">
<stop stop-color="#AA790F"/>
<stop offset="0.635417" stop-color="#EFD873"/>
<stop offset="1" stop-color="#DDBD53"/>
</linearGradient>
<linearGradient id="paint1_linear_31_1374" x1="10.9995" y1="20.4985" x2="10.9995" y2="21.4359" gradientUnits="userSpaceOnUse">
<stop stop-color="#AA790F"/>
<stop offset="0.635417" stop-color="#EFD873"/>
<stop offset="1" stop-color="#DDBD53"/>
</linearGradient>
<linearGradient id="paint2_linear_31_1374" x1="20.562" y1="18.9985" x2="20.562" y2="19.9359" gradientUnits="userSpaceOnUse">
<stop stop-color="#AA790F"/>
<stop offset="0.635417" stop-color="#EFD873"/>
<stop offset="1" stop-color="#DDBD53"/>
</linearGradient>
<linearGradient id="paint3_linear_31_1374" x1="21.062" y1="10.3735" x2="21.062" y2="11.3109" gradientUnits="userSpaceOnUse">
<stop stop-color="#AA790F"/>
<stop offset="0.635417" stop-color="#EFD873"/>
<stop offset="1" stop-color="#DDBD53"/>
</linearGradient>
<linearGradient id="paint4_linear_31_1374" x1="6.74946" y1="13.061" x2="6.74946" y2="13.9984" gradientUnits="userSpaceOnUse">
<stop stop-color="#AA790F"/>
<stop offset="0.635417" stop-color="#EFD873"/>
<stop offset="1" stop-color="#DDBD53"/>
</linearGradient>
<linearGradient id="paint5_linear_31_1374" x1="9.99946" y1="13.936" x2="9.99946" y2="14.8734" gradientUnits="userSpaceOnUse">
<stop stop-color="#AA790F"/>
<stop offset="0.635417" stop-color="#EFD873"/>
<stop offset="1" stop-color="#DDBD53"/>
</linearGradient>
<linearGradient id="paint6_linear_31_1374" x1="16.6245" y1="13.561" x2="16.6245" y2="14.4984" gradientUnits="userSpaceOnUse">
<stop stop-color="#AA790F"/>
<stop offset="0.635417" stop-color="#EFD873"/>
<stop offset="1" stop-color="#DDBD53"/>
</linearGradient>
<linearGradient id="paint7_linear_31_1374" x1="4.12446" y1="13.9985" x2="4.12446" y2="14.9359" gradientUnits="userSpaceOnUse">
<stop stop-color="#AA790F"/>
<stop offset="0.635417" stop-color="#EFD873"/>
<stop offset="1" stop-color="#DDBD53"/>
</linearGradient>
<linearGradient id="paint8_linear_31_1374" x1="19.8745" y1="8.37347" x2="19.8745" y2="9.31095" gradientUnits="userSpaceOnUse">
<stop stop-color="#AA790F"/>
<stop offset="0.635417" stop-color="#EFD873"/>
<stop offset="1" stop-color="#DDBD53"/>
</linearGradient>
<linearGradient id="paint9_linear_31_1374" x1="13.4995" y1="11.561" x2="13.4995" y2="12.4984" gradientUnits="userSpaceOnUse">
<stop stop-color="#AA790F"/>
<stop offset="0.635417" stop-color="#EFD873"/>
<stop offset="1" stop-color="#DDBD53"/>
</linearGradient>
<linearGradient id="paint10_linear_31_1374" x1="17.2495" y1="9.87347" x2="17.2495" y2="10.8109" gradientUnits="userSpaceOnUse">
<stop stop-color="#AA790F"/>
<stop offset="0.635417" stop-color="#EFD873"/>
<stop offset="1" stop-color="#DDBD53"/>
</linearGradient>
<linearGradient id="paint11_linear_31_1374" x1="10.812" y1="10.061" x2="10.812" y2="10.9984" gradientUnits="userSpaceOnUse">
<stop stop-color="#AA790F"/>
<stop offset="0.635417" stop-color="#EFD873"/>
<stop offset="1" stop-color="#DDBD53"/>
</linearGradient>
<linearGradient id="paint12_linear_31_1374" x1="15.9985" y1="6.18775" x2="15.9985" y2="16.3765" gradientUnits="userSpaceOnUse">
<stop stop-color="#AA790F"/>
<stop offset="0.635417" stop-color="#EFD873"/>
<stop offset="1" stop-color="#DDBD53"/>
</linearGradient>
<linearGradient id="paint13_linear_31_1374" x1="24.8754" y1="12.8735" x2="24.8754" y2="13.8109" gradientUnits="userSpaceOnUse">
<stop stop-color="#AA790F"/>
<stop offset="0.635417" stop-color="#EFD873"/>
<stop offset="1" stop-color="#DDBD53"/>
</linearGradient>
<linearGradient id="paint14_linear_31_1374" x1="27.5629" y1="13.936" x2="27.5629" y2="14.8734" gradientUnits="userSpaceOnUse">
<stop stop-color="#AA790F"/>
<stop offset="0.635417" stop-color="#EFD873"/>
<stop offset="1" stop-color="#DDBD53"/>
</linearGradient>
<linearGradient id="paint15_linear_31_1374" x1="22.1254" y1="13.811" x2="22.1254" y2="14.7484" gradientUnits="userSpaceOnUse">
<stop stop-color="#AA790F"/>
<stop offset="0.635417" stop-color="#EFD873"/>
<stop offset="1" stop-color="#DDBD53"/>
</linearGradient>
<linearGradient id="paint16_linear_31_1374" x1="19.187" y1="20.311" x2="19.187" y2="21.2484" gradientUnits="userSpaceOnUse">
<stop stop-color="#AA790F"/>
<stop offset="0.635417" stop-color="#EFD873"/>
<stop offset="1" stop-color="#DDBD53"/>
</linearGradient>
<linearGradient id="paint17_linear_31_1374" x1="22.2495" y1="20.3735" x2="22.2495" y2="21.3109" gradientUnits="userSpaceOnUse">
<stop stop-color="#AA790F"/>
<stop offset="0.635417" stop-color="#EFD873"/>
<stop offset="1" stop-color="#DDBD53"/>
</linearGradient>
<linearGradient id="paint18_linear_31_1374" x1="16.8745" y1="19.9985" x2="16.8745" y2="20.9359" gradientUnits="userSpaceOnUse">
<stop stop-color="#AA790F"/>
<stop offset="0.635417" stop-color="#EFD873"/>
<stop offset="1" stop-color="#DDBD53"/>
</linearGradient>
<linearGradient id="paint19_linear_31_1374" x1="15.9981" y1="17.4966" x2="15.9981" y2="22.8808" gradientUnits="userSpaceOnUse">
<stop stop-color="#AA790F"/>
<stop offset="0.635417" stop-color="#EFD873"/>
<stop offset="1" stop-color="#DDBD53"/>
</linearGradient>
<linearGradient id="paint20_linear_31_1374" x1="5.62446" y1="9.37689" x2="5.62446" y2="10.3144" gradientUnits="userSpaceOnUse">
<stop stop-color="#AA790F"/>
<stop offset="0.635417" stop-color="#EFD873"/>
<stop offset="1" stop-color="#DDBD53"/>
</linearGradient>
<linearGradient id="paint21_linear_31_1374" x1="6.99946" y1="6.68939" x2="6.99946" y2="7.62687" gradientUnits="userSpaceOnUse">
<stop stop-color="#AA790F"/>
<stop offset="0.635417" stop-color="#EFD873"/>
<stop offset="1" stop-color="#DDBD53"/>
</linearGradient>
<linearGradient id="paint22_linear_31_1374" x1="26.9995" y1="8.56439" x2="26.9995" y2="9.50187" gradientUnits="userSpaceOnUse">
<stop stop-color="#AA790F"/>
<stop offset="0.635417" stop-color="#EFD873"/>
<stop offset="1" stop-color="#DDBD53"/>
</linearGradient>
<linearGradient id="paint23_linear_31_1374" x1="24.8745" y1="6.68939" x2="24.8745" y2="7.62687" gradientUnits="userSpaceOnUse">
<stop stop-color="#AA790F"/>
<stop offset="0.635417" stop-color="#EFD873"/>
<stop offset="1" stop-color="#DDBD53"/>
</linearGradient>
<linearGradient id="paint24_linear_31_1374" x1="3.37446" y1="8.00189" x2="3.37446" y2="8.93937" gradientUnits="userSpaceOnUse">
<stop stop-color="#AA790F"/>
<stop offset="0.635417" stop-color="#EFD873"/>
<stop offset="1" stop-color="#DDBD53"/>
</linearGradient>
<linearGradient id="paint25_linear_31_1374" x1="28.1556" y1="18.2519" x2="28.1556" y2="19.1894" gradientUnits="userSpaceOnUse">
<stop stop-color="#AA790F"/>
<stop offset="0.635417" stop-color="#EFD873"/>
<stop offset="1" stop-color="#DDBD53"/>
</linearGradient>
<linearGradient id="paint26_linear_31_1374" x1="2.93681" y1="18.2519" x2="2.93681" y2="19.1894" gradientUnits="userSpaceOnUse">
<stop stop-color="#AA790F"/>
<stop offset="0.635417" stop-color="#EFD873"/>
<stop offset="1" stop-color="#DDBD53"/>
</linearGradient>
<linearGradient id="paint27_linear_31_1374" x1="9.31181" y1="24.8769" x2="9.31181" y2="25.8144" gradientUnits="userSpaceOnUse">
<stop stop-color="#AA790F"/>
<stop offset="0.635417" stop-color="#EFD873"/>
<stop offset="1" stop-color="#DDBD53"/>
</linearGradient>
<linearGradient id="paint28_linear_31_1374" x1="21.3431" y1="24.8769" x2="21.3431" y2="25.8144" gradientUnits="userSpaceOnUse">
<stop stop-color="#AA790F"/>
<stop offset="0.635417" stop-color="#EFD873"/>
<stop offset="1" stop-color="#DDBD53"/>
</linearGradient>
<linearGradient id="paint29_linear_31_1374" x1="12.9995" y1="24.8769" x2="12.9995" y2="25.8144" gradientUnits="userSpaceOnUse">
<stop stop-color="#AA790F"/>
<stop offset="0.635417" stop-color="#EFD873"/>
<stop offset="1" stop-color="#DDBD53"/>
</linearGradient>
<linearGradient id="paint30_linear_31_1374" x1="16.4995" y1="24.8769" x2="16.4995" y2="25.8144" gradientUnits="userSpaceOnUse">
<stop stop-color="#AA790F"/>
<stop offset="0.635417" stop-color="#EFD873"/>
<stop offset="1" stop-color="#DDBD53"/>
</linearGradient>
<linearGradient id="paint31_linear_31_1374" x1="24.812" y1="24.8769" x2="24.812" y2="25.8144" gradientUnits="userSpaceOnUse">
<stop stop-color="#AA790F"/>
<stop offset="0.635417" stop-color="#EFD873"/>
<stop offset="1" stop-color="#DDBD53"/>
</linearGradient>
<clipPath id="clip0_31_1374">
<rect width="32" height="32" fill="white"/>
</clipPath>
</defs>
</svg>
