<svg width="28" height="28" viewBox="0 0 28 28" fill="none" xmlns="http://www.w3.org/2000/svg">
<g clip-path="url(#clip0_31_1578)">
<path d="M7.46668 14L13.0667 18.6667L20.5334 9.33335M14 27.0667C12.2841 27.0667 10.5849 26.7287 8.99962 26.072C7.4143 25.4154 5.97384 24.4529 4.76049 23.2395C3.54714 22.0262 2.58465 20.5857 1.92799 19.0004C1.27133 17.4151 0.93335 15.716 0.93335 14C0.93335 12.2841 1.27133 10.5849 1.92799 8.99962C2.58465 7.4143 3.54714 5.97384 4.76049 4.76049C5.97384 3.54714 7.4143 2.58465 8.99962 1.92799C10.5849 1.27133 12.2841 0.93335 14 0.93335C17.4655 0.93335 20.7891 2.31001 23.2395 4.76049C25.69 7.21096 27.0667 10.5345 27.0667 14C27.0667 17.4655 25.69 20.7891 23.2395 23.2395C20.7891 25.69 17.4655 27.0667 14 27.0667Z" stroke="url(#paint0_linear_31_1578)" stroke-width="2.13333"/>
</g>
<defs>
<linearGradient id="paint0_linear_31_1578" x1="13.9988" y1="0.938375" x2="13.9988" y2="27.0711" gradientUnits="userSpaceOnUse">
<stop stop-color="#AA790F"/>
<stop offset="0.635417" stop-color="#EFD873"/>
<stop offset="1" stop-color="#DDBD53"/>
</linearGradient>
<clipPath id="clip0_31_1578">
<rect width="28" height="28" fill="white"/>
</clipPath>
</defs>
</svg>
