<svg width="28" height="28" viewBox="0 0 28 28" fill="none" xmlns="http://www.w3.org/2000/svg">
<path d="M8.55505 19.4446C8.42382 19.3133 8.3501 19.1353 8.3501 18.9497C8.3501 18.7641 8.42382 18.5861 8.55505 18.4548L13.0098 14L8.55505 9.54518C8.42754 9.41316 8.35698 9.23634 8.35858 9.0528C8.36017 8.86927 8.43379 8.6937 8.56358 8.56391C8.69336 8.43413 8.86893 8.36051 9.05247 8.35891C9.236 8.35732 9.41283 8.42787 9.54485 8.55538L13.9996 13.0102L18.4544 8.55538C18.5865 8.42787 18.7633 8.35732 18.9468 8.35891C19.1304 8.36051 19.3059 8.43413 19.4357 8.56391C19.5655 8.6937 19.6391 8.86927 19.6407 9.0528C19.6423 9.23634 19.5718 9.41316 19.4442 9.54518L14.9894 14L19.4442 18.4548C19.5718 18.5868 19.6423 18.7636 19.6407 18.9472C19.6391 19.1307 19.5655 19.3063 19.4357 19.4361C19.3059 19.5658 19.1304 19.6395 18.9468 19.6411C18.7633 19.6427 18.5865 19.5721 18.4544 19.4446L13.9996 14.9898L9.54485 19.4446C9.41358 19.5758 9.23556 19.6495 9.04995 19.6495C8.86433 19.6495 8.68632 19.5758 8.55505 19.4446Z" fill="#FF9272"/>
<path fill-rule="evenodd" clip-rule="evenodd" d="M14 28C21.7322 28 28 21.7322 28 14C28 6.2678 21.7322 0 14 0C6.2678 0 0 6.2678 0 14C0 21.7322 6.2678 28 14 28ZM14 26.6C20.9587 26.6 26.6 20.9587 26.6 14C26.6 7.0413 20.9587 1.4 14 1.4C7.0413 1.4 1.4 7.0413 1.4 14C1.4 20.9587 7.0413 26.6 14 26.6Z" fill="#FF9272"/>
</svg>
