<svg width="88" height="53" viewBox="0 0 88 53" fill="none" xmlns="http://www.w3.org/2000/svg">
<g id="Group 1000002601">
<g id="Clip path group">
<mask id="mask0_1_719" style="mask-type:luminance" maskUnits="userSpaceOnUse" x="20" y="0" width="47" height="41">
<g id="clip-path">
<path id="Vector" d="M26.7273 29.9764C26.7273 29.9764 36.1905 19.4548 50.8651 25.0164C50.8651 25.0164 45.8122 20.3188 36.7859 20.3188L43.8181 7.88598L55.6369 28.3412C32.2604 20.3188 20.803 40.2356 20.803 40.2356C44.9148 18.1204 66.8208 40.2356 66.8208 40.2356L43.8119 0.408203L26.7273 29.9764Z" fill="white"/>
</g>
</mask>
<g mask="url(#mask0_1_719)">
<g id="Group">
<path id="Vector_2" d="M55.3146 -19.5165L3.55957 10.3643L32.3065 60.1554L84.0615 30.2746L55.3146 -19.5165Z" fill="url(#paint0_linear_1_719)"/>
</g>
</g>
</g>
<g id="Clip path group_2">
<mask id="mask1_1_719" style="mask-type:luminance" maskUnits="userSpaceOnUse" x="0" y="47" width="6" height="6">
<g id="clip-path-2">
<path id="Vector_3" d="M2.95966 47.6626L4.3609 50.7931H1.55843L2.95966 47.6626ZM2.66011 47.0264L0 52.8442H0.638721L1.33438 51.2895H4.58247L5.27813 52.8442H5.92676L3.26541 47.0264H2.66011Z" fill="white"/>
</g>
</mask>
<g mask="url(#mask1_1_719)">
<g id="Group_2">
<path id="Vector_4" d="M4.44558 44.4646L-2.52026 48.4863L1.48166 55.4179L8.44751 51.3961L4.44558 44.4646Z" fill="url(#paint1_linear_1_719)"/>
</g>
</g>
</g>
<g id="Clip path group_3">
<mask id="mask2_1_719" style="mask-type:luminance" maskUnits="userSpaceOnUse" x="6" y="47" width="6" height="6">
<g id="clip-path-3">
<path id="Vector_5" d="M7.50759 47.5638H9.05613C9.63378 47.5638 10.0757 47.6913 10.3819 47.9463C10.688 48.2013 10.839 48.5615 10.8349 49.0269C10.8349 49.4874 10.6839 49.8447 10.3819 50.0989C10.0798 50.3531 9.63791 50.481 9.05613 50.4826H7.50759V47.5638ZM6.88867 47.0315V52.8494H7.50759V51.005H9.06974C9.22615 51.0042 9.38239 50.9943 9.53765 50.9753L10.8658 52.8506H11.5392L10.1157 50.8515C10.1927 50.8277 10.2684 50.7996 10.3422 50.7673C10.677 50.6262 10.9622 50.3888 11.1617 50.0853C11.3583 49.7675 11.4577 49.3992 11.4476 49.0257C11.459 48.6466 11.3596 48.2723 11.1617 47.9488C10.9617 47.6459 10.6766 47.409 10.3422 47.268C9.93949 47.1002 9.50589 47.0192 9.06974 47.0303L6.88867 47.0315Z" fill="white"/>
</g>
</mask>
<g mask="url(#mask2_1_719)">
<g id="Group_3">
<path id="Vector_6" d="M10.3769 45.0192L4.37158 48.4863L8.05353 54.8636L14.0589 51.3965L10.3769 45.0192Z" fill="url(#paint2_linear_1_719)"/>
</g>
</g>
</g>
<g id="Clip path group_4">
<mask id="mask3_1_719" style="mask-type:luminance" maskUnits="userSpaceOnUse" x="11" y="47" width="7" height="6">
<g id="clip-path-4">
<path id="Vector_7" d="M14.9309 47.6625L16.3322 50.793H13.5309L14.9309 47.6625ZM14.6264 47.0312L11.9663 52.8491H12.6063L13.3019 51.2944H16.55L17.2457 52.8491H17.8943L15.2453 47.0312H14.6264Z" fill="white"/>
</g>
</mask>
<g mask="url(#mask3_1_719)">
<g id="Group_4">
<path id="Vector_8" d="M16.417 44.4646L9.45117 48.4863L13.4531 55.4179L20.4189 51.3961L16.417 44.4646Z" fill="url(#paint3_linear_1_719)"/>
</g>
</g>
</g>
<g id="Clip path group_5">
<mask id="mask4_1_719" style="mask-type:luminance" maskUnits="userSpaceOnUse" x="18" y="47" width="6" height="6">
<g id="clip-path-5">
<path id="Vector_9" d="M19.4785 50.158H21.5321C22.0421 50.158 22.4328 50.2451 22.7043 50.4192C22.9758 50.5933 23.1116 50.869 23.1116 51.2461C23.1116 51.6282 22.9758 51.9067 22.7043 52.0816C22.4328 52.2566 22.0421 52.344 21.5321 52.344H19.4785V50.158ZM19.4785 47.5388H21.3353C21.8024 47.5388 22.1642 47.6258 22.4209 47.7999C22.5415 47.8938 22.6391 48.014 22.7062 48.1512C22.7733 48.2885 22.8082 48.4393 22.8082 48.5922C22.8082 48.745 22.7733 48.8958 22.7062 49.0331C22.6391 49.1704 22.5415 49.2905 22.4209 49.3844C22.1634 49.5618 21.8015 49.6505 21.3353 49.6505H19.4785V47.5388ZM18.8596 47.0312V52.8491H21.5371C22.2682 52.8491 22.8153 52.7129 23.1784 52.4406C23.3563 52.3089 23.4991 52.1355 23.5941 51.9356C23.6891 51.7357 23.7334 51.5154 23.7231 51.2944C23.7329 50.9998 23.655 50.7089 23.499 50.4588C23.3453 50.2307 23.1267 50.0539 22.8714 49.9513C22.757 49.9047 22.6385 49.8687 22.5174 49.8436C22.5434 49.8337 22.5707 49.825 22.5966 49.8139C22.8398 49.7104 23.0475 49.5383 23.1945 49.3188C23.3459 49.0838 23.4227 48.8085 23.4149 48.529C23.4248 48.3147 23.381 48.1013 23.2874 47.9082C23.1938 47.7151 23.0533 47.5486 22.8789 47.4236C22.5224 47.1629 22.0194 47.0325 21.3699 47.0325L18.8596 47.0312Z" fill="white"/>
</g>
</mask>
<g mask="url(#mask4_1_719)">
<g id="Group_5">
<path id="Vector_10" d="M22.511 44.9257L16.3438 48.4863L20.0795 54.9569L26.2468 51.3963L22.511 44.9257Z" fill="url(#paint4_linear_1_719)"/>
</g>
</g>
</g>
<g id="Clip path group_6">
<mask id="mask5_1_719" style="mask-type:luminance" maskUnits="userSpaceOnUse" x="25" y="47" width="1" height="6">
<g id="clip-path-6">
<path id="Vector_11" d="M25.747 47.0312H25.1318V52.8503H25.747V47.0312Z" fill="white"/>
</g>
</mask>
<g mask="url(#mask5_1_719)">
<g id="Group_6">
<path id="Vector_12" d="M25.5926 46.7651L22.6113 48.4863L25.2851 53.1174L28.2663 51.3961L25.5926 46.7651Z" fill="url(#paint5_linear_1_719)"/>
</g>
</g>
</g>
<g id="Clip path group_7">
<mask id="mask6_1_719" style="mask-type:luminance" maskUnits="userSpaceOnUse" x="26" y="47" width="7" height="6">
<g id="clip-path-7">
<path id="Vector_13" d="M29.6711 47.6626L31.0711 50.7931H28.2699L29.6711 47.6626ZM29.3715 47.0264L26.7114 52.8442H27.3514L28.047 51.2895H31.2951L31.9908 52.8442H32.6394L29.9781 47.0264H29.3715Z" fill="white"/>
</g>
</mask>
<g mask="url(#mask6_1_719)">
<g id="Group_7">
<path id="Vector_14" d="M31.157 44.4656L24.1912 48.4873L28.1931 55.4188L35.1589 51.3971L31.157 44.4656Z" fill="url(#paint6_linear_1_719)"/>
</g>
</g>
</g>
<g id="Clip path group_8">
<mask id="mask7_1_719" style="mask-type:luminance" maskUnits="userSpaceOnUse" x="33" y="47" width="6" height="6">
<g id="clip-path-8">
<path id="Vector_15" d="M37.8592 47.0312V51.7511L34.1098 47.0312H33.6023V52.8516H34.2187V48.1317L37.9595 52.8516H38.467V47.0312H37.8592Z" fill="white"/>
</g>
</mask>
<g mask="url(#mask7_1_719)">
<g id="Group_8">
<path id="Vector_16" d="M37.2497 44.9257L31.0825 48.4863L34.8183 54.9569L40.9855 51.3963L37.2497 44.9257Z" fill="url(#paint7_linear_1_719)"/>
</g>
</g>
</g>
<g id="Clip path group_9">
<mask id="mask8_1_719" style="mask-type:luminance" maskUnits="userSpaceOnUse" x="41" y="47" width="6" height="6">
<g id="clip-path-9">
<path id="Vector_17" d="M41.6262 47.0312V47.5635H43.6711V52.8516H44.2863V47.5635H46.3312V47.0312H41.6262Z" fill="white"/>
</g>
</mask>
<g mask="url(#mask8_1_719)">
<g id="Group_9">
<path id="Vector_18" d="M45.1552 44.9938L39.106 48.4863L42.8021 54.8883L48.8514 51.3957L45.1552 44.9938Z" fill="url(#paint8_linear_1_719)"/>
</g>
</g>
</g>
<g id="Clip path group_10">
<mask id="mask9_1_719" style="mask-type:luminance" maskUnits="userSpaceOnUse" x="46" y="46" width="7" height="7">
<g id="clip-path-10">
<path id="Vector_19" d="M48.8003 52.1736C48.509 52.0599 48.2443 51.8871 48.023 51.6661C47.8024 51.446 47.627 51.1849 47.5068 50.8974C47.3158 50.45 47.263 49.9557 47.3549 49.4779C47.4469 49.0002 47.6795 48.5609 48.023 48.2163C48.2444 47.9957 48.5091 47.8234 48.8003 47.71C49.4252 47.4707 50.1164 47.4707 50.7413 47.71C51.0308 47.8246 51.294 47.9969 51.5149 48.2163C51.7332 48.4355 51.9065 48.6954 52.0249 48.9813C52.2692 49.5983 52.2692 50.2853 52.0249 50.9024C51.9067 51.188 51.7334 51.4475 51.5149 51.6661C51.294 51.8859 51.0308 52.0586 50.7413 52.1736C50.1164 52.413 49.4252 52.413 48.8003 52.1736ZM48.5528 47.2025C48.1935 47.342 47.8659 47.5523 47.5895 47.8208C47.313 48.0894 47.0934 48.4108 46.9436 48.7659C46.6383 49.5201 46.6383 50.3635 46.9436 51.1178C47.093 51.4731 47.3125 51.7946 47.589 52.0633C47.8655 52.3319 48.1933 52.542 48.5528 52.6811C48.9413 52.8307 49.3545 52.9055 49.7708 52.9015C50.1859 52.9059 50.598 52.8311 50.9851 52.6811C51.3457 52.5412 51.6748 52.3308 51.9531 52.0622C52.2286 51.7965 52.4468 51.4772 52.5943 51.124C52.898 50.366 52.898 49.5201 52.5943 48.7622C52.4465 48.4087 52.2283 48.0891 51.9531 47.8226C51.6748 47.554 51.3457 47.3436 50.9851 47.2037C50.1996 46.91 49.3345 46.91 48.549 47.2037" fill="white"/>
</g>
</mask>
<g mask="url(#mask9_1_719)">
<g id="Group_10">
<path id="Vector_20" d="M51.2963 44.3362L44.1504 48.4619L48.2414 55.5478L55.3874 51.4221L51.2963 44.3362Z" fill="url(#paint9_linear_1_719)"/>
</g>
</g>
</g>
<g id="Clip path group_11">
<mask id="mask10_1_719" style="mask-type:luminance" maskUnits="userSpaceOnUse" x="54" y="47" width="5" height="6">
<g id="clip-path-11">
<path id="Vector_21" d="M58.3355 47.0312V50.34C58.3355 51.0282 58.1804 51.5353 57.8701 51.8613C57.5598 52.1872 57.1191 52.3523 56.5481 52.3564C55.982 52.3564 55.5442 52.1914 55.2347 51.8613C54.9253 51.5312 54.7701 51.0241 54.7693 50.34V47.0312H54.1504V50.3647C54.1504 51.2023 54.3637 51.8345 54.7903 52.2611C55.217 52.6878 55.8017 52.9011 56.5444 52.9011C57.2871 52.9011 57.8705 52.6878 58.2947 52.2611C58.7188 51.8345 58.9309 51.2023 58.9309 50.3647V47.0312H58.3355Z" fill="white"/>
</g>
</mask>
<g mask="url(#mask10_1_719)">
<g id="Group_11">
<path id="Vector_22" d="M57.7385 44.9609L51.6121 48.498L55.3485 54.9697L61.4749 51.4326L57.7385 44.9609Z" fill="url(#paint10_linear_1_719)"/>
</g>
</g>
</g>
<g id="Clip path group_12">
<mask id="mask11_1_719" style="mask-type:luminance" maskUnits="userSpaceOnUse" x="60" y="47" width="6" height="6">
<g id="clip-path-12">
<path id="Vector_23" d="M61.4029 47.5635H62.9489C63.5315 47.5635 63.9738 47.691 64.2759 47.946C64.5779 48.201 64.7289 48.5612 64.7289 49.0267C64.7289 49.4871 64.5779 49.8445 64.2759 50.0986C63.9738 50.3528 63.5315 50.4807 62.9489 50.4824H61.4029V47.5635ZM60.7839 47.0313V52.8491H61.4029V51.0047H62.9662C63.1222 51.004 63.2781 50.9941 63.4329 50.975L64.7586 52.8516H65.432L64.0159 50.8525C64.0933 50.8285 64.1693 50.8004 64.2437 50.7683C64.5781 50.6272 64.8629 50.3898 65.0619 50.0863C65.2589 49.7686 65.3587 49.4003 65.3491 49.0267C65.36 48.6474 65.2602 48.2732 65.0619 47.9497C64.8624 47.6469 64.5777 47.41 64.2437 47.2689C63.8409 47.1012 63.4074 47.0202 62.9712 47.0313H60.7839Z" fill="white"/>
</g>
</mask>
<g mask="url(#mask11_1_719)">
<g id="Group_12">
<path id="Vector_24" d="M64.2734 45.0201L58.2681 48.4873L61.95 54.8646L67.9553 51.3974L64.2734 45.0201Z" fill="url(#paint11_linear_1_719)"/>
</g>
</g>
</g>
<g id="Clip path group_13">
<mask id="mask12_1_719" style="mask-type:luminance" maskUnits="userSpaceOnUse" x="68" y="47" width="6" height="6">
<g id="clip-path-13">
<path id="Vector_25" d="M73.2327 47.0312V49.6258H69.5923V47.0312H68.9771V52.8516H69.5923V50.1654H73.2327V52.8516H73.8405V47.0312H73.2327Z" fill="white"/>
</g>
</mask>
<g mask="url(#mask12_1_719)">
<g id="Group_13">
<path id="Vector_26" d="M72.6238 44.9257L66.4565 48.4863L70.1923 54.9569L76.3595 51.3963L72.6238 44.9257Z" fill="url(#paint12_linear_1_719)"/>
</g>
</g>
</g>
<g id="Clip path group_14">
<mask id="mask13_1_719" style="mask-type:luminance" maskUnits="userSpaceOnUse" x="75" y="47" width="6" height="6">
<g id="clip-path-14">
<path id="Vector_27" d="M79.8678 47.0312V50.34C79.8678 51.0282 79.7126 51.5353 79.4023 51.8613C79.0921 52.1872 78.6514 52.3523 78.0803 52.3564C77.5142 52.3564 77.0764 52.1914 76.767 51.8613C76.4575 51.5312 76.302 51.0241 76.3003 50.34V47.0312H75.6814V50.3647C75.6814 51.2023 75.8951 51.8345 76.3226 52.2611C76.7501 52.6878 77.3347 52.9011 78.0766 52.9011C78.8193 52.9011 79.4027 52.6878 79.8269 52.2611C80.2511 51.8345 80.4627 51.2023 80.4619 50.3647V47.0312H79.8678Z" fill="white"/>
</g>
</mask>
<g mask="url(#mask13_1_719)">
<g id="Group_14">
<path id="Vector_28" d="M79.2705 44.9619L73.144 48.499L76.8805 54.9707L83.0069 51.4336L79.2705 44.9619Z" fill="url(#paint13_linear_1_719)"/>
</g>
</g>
</g>
<g id="Clip path group_15">
<mask id="mask14_1_719" style="mask-type:luminance" maskUnits="userSpaceOnUse" x="82" y="47" width="6" height="6">
<g id="clip-path-15">
<path id="Vector_29" d="M82.9351 50.1576H84.9887C85.4987 50.1576 85.8886 50.2443 86.1609 50.4188C86.4332 50.5934 86.5681 50.8694 86.5681 51.2457C86.5681 51.622 86.432 51.9067 86.1609 52.0812C85.8898 52.2558 85.4987 52.3437 84.9887 52.3437H82.9351V50.1576ZM82.9351 47.5384H84.7918C85.2573 47.5384 85.6187 47.6254 85.8762 47.7996C85.9966 47.8936 86.0939 48.0138 86.1609 48.151C86.2279 48.2883 86.2627 48.439 86.2627 48.5918C86.2627 48.7445 86.2279 48.8952 86.1609 49.0325C86.0939 49.1698 85.9966 49.29 85.8762 49.384C85.6187 49.5614 85.2573 49.6501 84.7918 49.6501H82.9351V47.5384ZM82.3162 47.0309V52.8487H84.9924C85.7252 52.8487 86.2727 52.7125 86.635 52.4402C86.8129 52.3085 86.9556 52.1351 87.0506 51.9352C87.1456 51.7353 87.1899 51.5151 87.1796 51.294C87.1904 50.9993 87.1123 50.7082 86.9556 50.4584C86.8018 50.2303 86.5832 50.0535 86.328 49.9509C86.2135 49.9043 86.095 49.8683 85.974 49.8432C86 49.8333 86.0272 49.8247 86.0532 49.8135C86.2963 49.71 86.504 49.5379 86.6511 49.3184C86.8042 49.0809 86.881 48.8023 86.8714 48.52C86.8814 48.3056 86.8375 48.0922 86.7439 47.8992C86.6503 47.7061 86.5099 47.5395 86.3354 47.4146C85.9781 47.1538 85.4751 47.0234 84.8265 47.0234L82.3162 47.0309Z" fill="white"/>
</g>
</mask>
<g mask="url(#mask14_1_719)">
<g id="Group_15">
<path id="Vector_30" d="M85.9686 44.9241L79.8003 48.4854L83.5361 54.9559L89.7044 51.3947L85.9686 44.9241Z" fill="url(#paint14_linear_1_719)"/>
</g>
</g>
</g>
</g>
<defs>
<linearGradient id="paint0_linear_1_719" x1="38.1165" y1="3.72688" x2="71.3605" y2="61.3071" gradientUnits="userSpaceOnUse">
<stop stop-color="#B07908"/>
<stop offset="0.08" stop-color="#C19325"/>
<stop offset="0.22" stop-color="#DDBD53"/>
<stop offset="0.33" stop-color="#EED66F"/>
<stop offset="0.4" stop-color="#F4E07A"/>
<stop offset="0.44" stop-color="#EFD873"/>
<stop offset="0.68" stop-color="#D5B354"/>
<stop offset="0.88" stop-color="#C69C41"/>
<stop offset="1" stop-color="#C0943A"/>
</linearGradient>
<linearGradient id="paint1_linear_1_719" x1="-6.5554" y1="27.4077" x2="26.6885" y2="84.988" gradientUnits="userSpaceOnUse">
<stop stop-color="#B07908"/>
<stop offset="0.08" stop-color="#C19325"/>
<stop offset="0.22" stop-color="#DDBD53"/>
<stop offset="0.33" stop-color="#EED66F"/>
<stop offset="0.4" stop-color="#F4E07A"/>
<stop offset="0.44" stop-color="#EFD873"/>
<stop offset="0.68" stop-color="#D5B354"/>
<stop offset="0.88" stop-color="#C69C41"/>
<stop offset="1" stop-color="#C0943A"/>
</linearGradient>
<linearGradient id="paint2_linear_1_719" x1="-0.726037" y1="25.5398" x2="32.5179" y2="83.1201" gradientUnits="userSpaceOnUse">
<stop stop-color="#B07908"/>
<stop offset="0.08" stop-color="#C19325"/>
<stop offset="0.22" stop-color="#DDBD53"/>
<stop offset="0.33" stop-color="#EED66F"/>
<stop offset="0.4" stop-color="#F4E07A"/>
<stop offset="0.44" stop-color="#EFD873"/>
<stop offset="0.68" stop-color="#D5B354"/>
<stop offset="0.88" stop-color="#C69C41"/>
<stop offset="1" stop-color="#C0943A"/>
</linearGradient>
<linearGradient id="paint3_linear_1_719" x1="3.07094" y1="22.8085" x2="36.3149" y2="80.3887" gradientUnits="userSpaceOnUse">
<stop stop-color="#B07908"/>
<stop offset="0.08" stop-color="#C19325"/>
<stop offset="0.22" stop-color="#DDBD53"/>
<stop offset="0.33" stop-color="#EED66F"/>
<stop offset="0.4" stop-color="#F4E07A"/>
<stop offset="0.44" stop-color="#EFD873"/>
<stop offset="0.68" stop-color="#D5B354"/>
<stop offset="0.88" stop-color="#C69C41"/>
<stop offset="1" stop-color="#C0943A"/>
</linearGradient>
<linearGradient id="paint4_linear_1_719" x1="8.01871" y1="20.7396" x2="41.2627" y2="78.3199" gradientUnits="userSpaceOnUse">
<stop stop-color="#B07908"/>
<stop offset="0.08" stop-color="#C19325"/>
<stop offset="0.22" stop-color="#DDBD53"/>
<stop offset="0.33" stop-color="#EED66F"/>
<stop offset="0.4" stop-color="#F4E07A"/>
<stop offset="0.44" stop-color="#EFD873"/>
<stop offset="0.68" stop-color="#D5B354"/>
<stop offset="0.88" stop-color="#C69C41"/>
<stop offset="1" stop-color="#C0943A"/>
</linearGradient>
<linearGradient id="paint5_linear_1_719" x1="11.4708" y1="18.7404" x2="44.7148" y2="76.3206" gradientUnits="userSpaceOnUse">
<stop stop-color="#B07908"/>
<stop offset="0.08" stop-color="#C19325"/>
<stop offset="0.22" stop-color="#DDBD53"/>
<stop offset="0.33" stop-color="#EED66F"/>
<stop offset="0.4" stop-color="#F4E07A"/>
<stop offset="0.44" stop-color="#EFD873"/>
<stop offset="0.68" stop-color="#D5B354"/>
<stop offset="0.88" stop-color="#C69C41"/>
<stop offset="1" stop-color="#C0943A"/>
</linearGradient>
<linearGradient id="paint6_linear_1_719" x1="14.1268" y1="16.6922" x2="47.3708" y2="74.2724" gradientUnits="userSpaceOnUse">
<stop stop-color="#B07908"/>
<stop offset="0.08" stop-color="#C19325"/>
<stop offset="0.22" stop-color="#DDBD53"/>
<stop offset="0.33" stop-color="#EED66F"/>
<stop offset="0.4" stop-color="#F4E07A"/>
<stop offset="0.44" stop-color="#EFD873"/>
<stop offset="0.68" stop-color="#D5B354"/>
<stop offset="0.88" stop-color="#C69C41"/>
<stop offset="1" stop-color="#C0943A"/>
</linearGradient>
<linearGradient id="paint7_linear_1_719" x1="19.534" y1="14.0904" x2="52.778" y2="71.6707" gradientUnits="userSpaceOnUse">
<stop stop-color="#B07908"/>
<stop offset="0.08" stop-color="#C19325"/>
<stop offset="0.22" stop-color="#DDBD53"/>
<stop offset="0.33" stop-color="#EED66F"/>
<stop offset="0.4" stop-color="#F4E07A"/>
<stop offset="0.44" stop-color="#EFD873"/>
<stop offset="0.68" stop-color="#D5B354"/>
<stop offset="0.88" stop-color="#C69C41"/>
<stop offset="1" stop-color="#C0943A"/>
</linearGradient>
<linearGradient id="paint8_linear_1_719" x1="24.8219" y1="9.94821" x2="58.0659" y2="67.5285" gradientUnits="userSpaceOnUse">
<stop stop-color="#B07908"/>
<stop offset="0.08" stop-color="#C19325"/>
<stop offset="0.22" stop-color="#DDBD53"/>
<stop offset="0.33" stop-color="#EED66F"/>
<stop offset="0.4" stop-color="#F4E07A"/>
<stop offset="0.44" stop-color="#EFD873"/>
<stop offset="0.68" stop-color="#D5B354"/>
<stop offset="0.88" stop-color="#C69C41"/>
<stop offset="1" stop-color="#C0943A"/>
</linearGradient>
<linearGradient id="paint9_linear_1_719" x1="29.7779" y1="9.22873" x2="63.0219" y2="66.809" gradientUnits="userSpaceOnUse">
<stop stop-color="#B07908"/>
<stop offset="0.08" stop-color="#C19325"/>
<stop offset="0.22" stop-color="#DDBD53"/>
<stop offset="0.33" stop-color="#EED66F"/>
<stop offset="0.4" stop-color="#F4E07A"/>
<stop offset="0.44" stop-color="#EFD873"/>
<stop offset="0.68" stop-color="#D5B354"/>
<stop offset="0.88" stop-color="#C69C41"/>
<stop offset="1" stop-color="#C0943A"/>
</linearGradient>
<linearGradient id="paint10_linear_1_719" x1="34.8733" y1="6.08437" x2="68.1173" y2="63.6646" gradientUnits="userSpaceOnUse">
<stop stop-color="#B07908"/>
<stop offset="0.08" stop-color="#C19325"/>
<stop offset="0.22" stop-color="#DDBD53"/>
<stop offset="0.33" stop-color="#EED66F"/>
<stop offset="0.4" stop-color="#F4E07A"/>
<stop offset="0.44" stop-color="#EFD873"/>
<stop offset="0.68" stop-color="#D5B354"/>
<stop offset="0.88" stop-color="#C69C41"/>
<stop offset="1" stop-color="#C0943A"/>
</linearGradient>
<linearGradient id="paint11_linear_1_719" x1="39.5036" y1="2.13622" x2="72.7475" y2="59.7164" gradientUnits="userSpaceOnUse">
<stop stop-color="#B07908"/>
<stop offset="0.08" stop-color="#C19325"/>
<stop offset="0.22" stop-color="#DDBD53"/>
<stop offset="0.33" stop-color="#EED66F"/>
<stop offset="0.4" stop-color="#F4E07A"/>
<stop offset="0.44" stop-color="#EFD873"/>
<stop offset="0.68" stop-color="#D5B354"/>
<stop offset="0.88" stop-color="#C69C41"/>
<stop offset="1" stop-color="#C0943A"/>
</linearGradient>
<linearGradient id="paint12_linear_1_719" x1="46.0976" y1="-1.07072" x2="79.3415" y2="56.5096" gradientUnits="userSpaceOnUse">
<stop stop-color="#B07908"/>
<stop offset="0.08" stop-color="#C19325"/>
<stop offset="0.22" stop-color="#DDBD53"/>
<stop offset="0.33" stop-color="#EED66F"/>
<stop offset="0.4" stop-color="#F4E07A"/>
<stop offset="0.44" stop-color="#EFD873"/>
<stop offset="0.68" stop-color="#D5B354"/>
<stop offset="0.88" stop-color="#C69C41"/>
<stop offset="1" stop-color="#C0943A"/>
</linearGradient>
<linearGradient id="paint13_linear_1_719" x1="50.4759" y1="-4.1243" x2="83.7199" y2="53.4559" gradientUnits="userSpaceOnUse">
<stop stop-color="#B07908"/>
<stop offset="0.08" stop-color="#C19325"/>
<stop offset="0.22" stop-color="#DDBD53"/>
<stop offset="0.33" stop-color="#EED66F"/>
<stop offset="0.4" stop-color="#F4E07A"/>
<stop offset="0.44" stop-color="#EFD873"/>
<stop offset="0.68" stop-color="#D5B354"/>
<stop offset="0.88" stop-color="#C69C41"/>
<stop offset="1" stop-color="#C0943A"/>
</linearGradient>
<linearGradient id="paint14_linear_1_719" x1="56.3774" y1="-5.8691" x2="89.6214" y2="51.7112" gradientUnits="userSpaceOnUse">
<stop stop-color="#B07908"/>
<stop offset="0.08" stop-color="#C19325"/>
<stop offset="0.22" stop-color="#DDBD53"/>
<stop offset="0.33" stop-color="#EED66F"/>
<stop offset="0.4" stop-color="#F4E07A"/>
<stop offset="0.44" stop-color="#EFD873"/>
<stop offset="0.68" stop-color="#D5B354"/>
<stop offset="0.88" stop-color="#C69C41"/>
<stop offset="1" stop-color="#C0943A"/>
</linearGradient>
</defs>
</svg>
