<svg width="85" height="85" viewBox="0 0 85 85" fill="none" xmlns="http://www.w3.org/2000/svg">
<path d="M74.6714 57.9969C74.6855 57.9062 74.688 58.0874 74.6714 57.9969V57.9969Z" fill="url(#paint0_linear_1_579)"/>
<path d="M81.8633 34.3402C82.2737 32.0508 81.4134 29.3783 79.4408 26.815C77.5421 24.3479 74.7344 22.1334 71.535 20.5797C68.9915 19.3443 67.3263 17.5642 65.7158 15.8424C63.3936 13.3596 61.2002 11.0147 56.8893 10.8048C51.7594 10.5558 49.4655 13.701 48.5543 15.5984C47.643 17.4958 45.8396 18.764 43.8507 18.9031C43.6186 18.9193 43.3858 18.9215 43.1535 18.9097C41.1907 18.8093 37.5946 20.0497 31.6122 26.5285C30.595 27.6304 28.8481 28.6369 26.9956 28.1543C24.7285 27.5651 22.9132 24.8946 21.8844 20.6348C21.8159 20.3482 21.7166 20.0699 21.5884 19.8047C20.8318 18.2528 19.4316 15.5205 18.5098 14.5639C18.2345 12.7555 18.0233 12.1328 17.3327 12.0181C17.1518 11.9875 16.8489 11.9374 15.8201 12.5296C15.4923 12.7053 15.1864 12.9194 14.909 13.1672C14.8529 13.1714 14.7915 13.1754 14.7361 13.1789C14.0502 13.2227 12.9026 13.2951 11.6991 13.9425C10.9931 14.3217 9.01815 14.3459 6.54584 14.0059C5.63635 13.8722 4.70759 14.0062 3.87299 14.3916C3.01934 14.7947 2.48095 15.3545 2.2726 16.0557C2.12772 16.5831 2.16176 17.1436 2.36939 17.6495C2.1811 17.8272 2.03507 18.045 1.94207 18.2866C1.84907 18.5283 1.81145 18.7877 1.832 19.0458C1.91119 19.9921 2.72931 20.8886 3.51556 20.8904C4.25144 20.8968 4.98699 20.8571 5.71792 20.7717C6.40182 20.6988 7.09339 20.7777 7.74331 21.0027C8.46735 21.2704 9.20773 21.4917 9.95996 21.6651C10.166 21.7149 15.0145 22.9507 15.9249 30.2164C16.3839 33.8793 19.4999 36.854 24.9361 38.8191C29.0647 40.3115 33.3232 40.7843 34.4051 40.7315C34.6408 40.7202 35.0668 40.7756 35.7591 41.1087C36.5474 41.498 37.2506 42.04 37.8278 42.7031C38.4051 43.3663 38.845 44.1374 39.1219 44.9718C40.8141 49.9756 43.0233 56.2038 43.9379 57.4585C44.5732 58.3303 44.6185 64.1017 44.3016 69.1294C43.955 69.3373 43.4272 69.6682 42.9058 70.0517C41.5962 71.0146 41.0072 71.7968 41.0356 72.5477H27.0063C26.7861 72.5477 26.575 72.6352 26.4193 72.7908C26.2637 72.9465 26.1762 73.1576 26.1762 73.3778C26.1762 73.5979 26.2637 73.8091 26.4193 73.9647C26.575 74.1204 26.7861 74.2079 27.0063 74.2079H75.3168C75.537 74.2079 75.7481 74.1204 75.9038 73.9647C76.0594 73.8091 76.1469 73.5979 76.1469 73.3778C76.1469 73.1576 76.0594 72.9465 75.9038 72.7908C75.7481 72.6352 75.537 72.5477 75.3168 72.5477H73.9932C74.0246 72.4687 74.0538 72.3883 74.0778 72.3052L75.9656 65.4321C76.212 65.005 77.2072 63.2518 78.087 61.2913C80.028 56.9656 79.6125 55.5874 79.1312 54.927C78.8739 54.574 78.5063 52.7736 78.5483 49.2599C78.5579 47.9756 78.6334 46.6927 78.7748 45.4163C79.6083 47.8384 80.3624 50.8963 80.3718 50.9348C80.4123 51.0997 80.5023 51.2482 80.6298 51.3603C80.7573 51.4725 80.9161 51.5428 81.0848 51.5619C81.2536 51.5809 81.4241 51.5478 81.5733 51.4669C81.7226 51.386 81.8436 51.2613 81.9198 51.1096C82.0282 50.8938 84.5372 45.7906 82.1582 41.2192C82.0295 40.8223 81.2021 38.0302 81.8633 34.3402ZM68.044 20.3479C68.9038 21.0169 69.8307 21.595 70.8097 22.073C70.9126 22.1228 71.0139 22.1752 71.1158 22.2267V25.8243H66.0925L68.044 20.3479ZM65.4083 17.9342C65.8133 18.3547 66.2384 18.7794 66.6913 19.1981L64.4501 25.4876L61.255 17.9339L65.4083 17.9342ZM52.1696 17.9342H58.1423L55.0767 25.26L52.1696 17.9342ZM53.5143 25.8243H46.5098L50.6378 18.5747L53.5143 25.8243ZM59.6984 18.5161L62.7896 25.8243H56.6402L59.6984 18.5161ZM56.8084 12.4632C57.946 12.5043 59.063 12.7782 60.0905 13.268H52.8473C53.8595 12.7168 55.1532 12.382 56.8084 12.4632ZM50.9062 14.9282H62.4803C62.9433 15.3462 63.3909 15.7997 63.8417 16.2741H50.072C50.3024 15.7976 50.582 15.3465 50.9062 14.9282ZM43.942 20.5602C43.9502 20.5602 43.9586 20.5602 43.9664 20.5592C44.94 20.4829 45.8882 20.2111 46.7544 19.7601C47.6206 19.309 48.387 18.6881 49.0078 17.9342H49.092L44.5993 25.8243H44.0697C44.036 25.8244 44.0036 25.8111 43.9797 25.7873C43.9557 25.7636 43.9422 25.7313 43.942 25.6976V20.5602ZM40.9295 21.0614C41.3622 20.8657 41.816 20.7203 42.2819 20.6281V25.6976C42.2825 26.1715 42.4711 26.6257 42.8063 26.9607C43.1415 27.2957 43.5958 27.484 44.0697 27.4844H71.1932C71.6127 27.484 72.0149 27.3173 72.3116 27.0207C72.6084 26.7241 72.7753 26.322 72.7759 25.9025V23.1499C73.3034 23.4723 73.8123 23.8123 74.3025 24.1699V28.5639C74.3022 28.6525 74.2668 28.7374 74.204 28.7999C74.1413 28.8625 74.0562 28.8976 73.9676 28.8976H41.2715C41.1811 28.8976 41.0943 28.8617 41.0303 28.7978C40.9662 28.734 40.9301 28.6473 40.9298 28.5569L40.9295 21.0614ZM10.3278 20.0468C9.65108 19.8894 8.98473 19.6902 8.33267 19.4503C7.43919 19.1338 6.48625 19.0211 5.54361 19.1206C4.91986 19.1939 4.29235 19.2305 3.66431 19.2301C3.566 19.1397 3.50324 19.0171 3.48734 18.8845C3.49282 18.8548 3.6658 18.6687 4.29683 18.5606C4.40476 18.5427 4.50809 18.5037 4.60088 18.4457C4.69367 18.3878 4.77408 18.312 4.83751 18.2229C4.90093 18.1337 4.9461 18.033 4.97044 17.9263C4.99477 17.8196 4.99778 17.7092 4.97929 17.6014C4.9608 17.4936 4.92118 17.3905 4.8627 17.298C4.80423 17.2055 4.72805 17.1255 4.63855 17.0626C4.54906 16.9997 4.44801 16.9551 4.34121 16.9314C4.23442 16.9076 4.12398 16.9052 4.01626 16.9243C3.97078 16.9321 3.92761 16.9409 3.88345 16.9496C3.83784 16.8136 3.83111 16.6675 3.86403 16.5279C3.94886 16.2425 4.30131 16.0247 4.58188 15.8921C5.12546 15.6444 5.72934 15.5603 6.3199 15.65C8.39293 15.935 11.1453 16.124 12.4851 15.4043C13.3696 14.9293 14.2556 14.873 14.8425 14.8355C15.294 14.8068 15.8439 14.7718 16.1042 14.324C16.2976 14.1783 16.5015 14.0471 16.7143 13.9314C16.7618 14.1615 16.8159 14.4613 16.8737 14.8427C16.9223 15.169 17.0734 15.4713 17.3053 15.7059C17.6414 16.096 17.9382 16.5184 18.1913 16.9668L13.3963 21.6651C11.8471 20.4132 10.449 20.0742 10.3278 20.0468ZM15.8103 24.5011C15.4609 23.901 15.054 23.3362 14.5954 22.8147L19.0392 18.461C19.3405 19.0216 19.6599 19.6443 19.9855 20.3072L15.8103 24.5011ZM66.0213 70.7033C65.8673 70.9834 65.7772 71.2942 65.7575 71.6133C65.7378 71.9324 65.7889 72.2519 65.9072 72.5489H49.4921C49.5031 72.3733 49.4963 72.197 49.4717 72.0228C49.4674 71.9861 49.462 71.9419 49.4589 71.9044C50.2586 70.9581 49.6541 68.4397 49.5802 68.1466C49.1948 66.6183 48.1709 62.5582 48.883 59.5581C49.4308 57.2505 47.9518 50.1228 46.5422 44.2882C48.0288 44.49 49.5273 44.5912 51.0276 44.591C56.4454 44.5653 61.7917 43.3522 66.6901 41.0373C67.5398 42.7653 68.8034 44.756 70.4919 47.0273C70.5986 47.1709 70.6807 47.281 70.732 47.3528C71.0836 48.0431 72.1585 53.2738 73.0114 58.0154C72.9204 58.5821 72.5482 60.839 72.0241 63.1784C70.9881 67.8022 70.2748 68.7129 70.1024 68.8736C67.9054 69.1255 66.5701 69.7243 66.0213 70.7029V70.7033ZM81.2615 47.835C80.8133 46.2558 80.2128 44.3292 79.6356 43.0447C79.3472 42.4033 78.9323 42.2572 78.635 42.2479C78.4442 42.2409 77.9736 42.2917 77.6606 42.8837C76.961 44.2063 76.8925 48.7836 76.8868 49.301C76.8611 51.7146 76.9967 54.8196 77.7888 55.9061C77.8114 55.9372 78.3215 56.7092 76.5769 60.6017C75.6228 62.73 74.4886 64.6704 74.4771 64.6897C74.4405 64.7522 74.4122 64.8191 74.3928 64.8889L72.4799 71.8543C72.4279 72.0344 72.3251 72.1956 72.1838 72.3188C72.0424 72.4419 71.8686 72.5217 71.6831 72.5485L68.3696 72.5396C68.3392 72.5395 68.3088 72.5411 68.2786 72.5444C68.1261 72.5621 67.9719 72.5319 67.8375 72.4579C67.703 72.3839 67.5949 72.2699 67.5282 72.1317C67.3438 71.7394 67.4385 71.5704 67.4696 71.5149C67.5654 71.3441 68.0581 70.7669 70.3714 70.5139C71.396 70.4018 72.3284 69.2447 73.5486 63.9609C74.2165 61.0687 74.6674 58.0258 74.6718 57.9968C73.9716 54.0913 72.7054 47.2745 72.1036 46.4172C72.0485 46.3387 71.9527 46.2095 71.8245 46.0368C67.9482 40.821 67.0077 37.9891 67.0371 36.4619C67.043 36.2766 66.986 36.0948 66.8753 35.9461C66.7646 35.7974 66.6068 35.6906 66.4277 35.6431L66.3945 35.6345C66.276 35.604 66.1522 35.6006 66.0323 35.6246C65.9124 35.6486 65.7995 35.6995 65.702 35.7732C65.6044 35.847 65.5248 35.9419 65.4691 36.0508C65.4134 36.1596 65.383 36.2797 65.3801 36.402C65.3614 37.2961 65.5752 38.3322 66.0214 39.5101C63.7233 40.6184 55.6289 44.045 46.1152 42.5492C45.313 39.3335 44.6071 36.7718 44.415 36.0809C44.3839 35.9692 44.3298 35.8653 44.2562 35.7758C44.1825 35.6864 44.0909 35.6133 43.9873 35.5614C43.8837 35.5094 43.7704 35.4798 43.6546 35.4743C43.5388 35.4688 43.4232 35.4876 43.3152 35.5295C43.1208 35.6106 42.9633 35.7607 42.8728 35.9508C42.7824 36.141 42.7654 36.3579 42.8251 36.5598C44.9562 44.2251 47.8919 56.5481 47.2683 59.1745C46.462 62.5702 47.5582 66.9163 47.9709 68.5525C48.1289 69.1789 48.2787 70.4667 48.1701 70.8504C47.7185 71.3293 47.7856 71.9019 47.8226 72.2163C47.8263 72.2484 47.8311 72.2887 47.8346 72.3251C47.5919 72.435 46.7093 72.6589 43.663 72.482C43.3722 72.4721 43.0833 72.431 42.8013 72.3593C43.1676 71.8778 44.3263 71.0059 45.4996 70.3538C45.6216 70.2868 45.7248 70.1902 45.7998 70.073C45.8748 69.9558 45.9193 69.8216 45.9291 69.6828C46.1085 67.0431 46.5921 58.2825 45.2793 56.481C44.68 55.6591 42.966 51.1578 40.6944 44.4404C40.3461 43.3967 39.794 42.4325 39.0701 41.6037C38.3462 40.775 37.4651 40.0983 36.4776 39.6127C35.6578 39.2184 34.9534 39.0411 34.3214 39.0736C33.6165 39.1077 29.6114 38.7446 25.4995 37.2583C22.145 36.0463 18.0464 33.8038 17.5711 30.0104C17.4138 28.6622 17.0812 27.3404 16.5817 26.0784L20.5527 22.0904C22.1068 27.5078 24.6567 29.2615 26.5791 29.7603C28.7224 30.3173 31.1188 29.5103 32.8329 27.6539C35.1967 25.094 37.3962 23.161 39.2695 21.9646V28.5554C39.2699 29.0863 39.4809 29.5953 39.8563 29.9707C40.2316 30.3462 40.7406 30.5573 41.2715 30.5577H41.3905V31.6066C41.3905 31.8267 41.478 32.0379 41.6337 32.1935C41.7893 32.3492 42.0005 32.4367 42.2206 32.4367C42.4408 32.4367 42.6519 32.3492 42.8076 32.1935C42.9632 32.0379 43.0507 31.8267 43.0507 31.6066V30.5577H45.7899V31.6605C45.7899 31.8807 45.8774 32.0918 46.0331 32.2475C46.1887 32.4032 46.3999 32.4906 46.62 32.4906C46.8402 32.4906 47.0513 32.4032 47.207 32.2475C47.3626 32.0918 47.4501 31.8807 47.4501 31.6605V30.5577H50.1894V31.6605C50.1894 31.8807 50.2768 32.0918 50.4325 32.2475C50.5882 32.4032 50.7993 32.4906 51.0194 32.4906C51.2396 32.4906 51.4507 32.4032 51.6064 32.2475C51.7621 32.0918 51.8495 31.8807 51.8495 31.6605V30.5577H54.5888V31.6605C54.5888 31.8807 54.6762 32.0918 54.8319 32.2475C54.9876 32.4032 55.1987 32.4906 55.4188 32.4906C55.639 32.4906 55.8501 32.4032 56.0058 32.2475C56.1615 32.0918 56.2489 31.8807 56.2489 31.6605V30.5577H58.9882V31.6605C58.9882 31.8807 59.0756 32.0918 59.2313 32.2475C59.387 32.4032 59.5981 32.4906 59.8183 32.4906C60.0384 32.4906 60.2495 32.4032 60.4052 32.2475C60.5609 32.0918 60.6483 31.8807 60.6483 31.6605V30.5577H63.3876V31.6605C63.3876 31.8807 63.4751 32.0918 63.6307 32.2475C63.7864 32.4032 63.9975 32.4906 64.2177 32.4906C64.4378 32.4906 64.649 32.4032 64.8046 32.2475C64.9603 32.0918 65.0478 31.8807 65.0478 31.6605V30.5577H67.787V31.6605C67.787 31.8807 67.8745 32.0918 68.0301 32.2475C68.1858 32.4032 68.3969 32.4906 68.6171 32.4906C68.8372 32.4906 69.0484 32.4032 69.204 32.2475C69.3597 32.0918 69.4472 31.8807 69.4472 31.6605V30.5577H72.1864V31.6605C72.1864 31.8807 72.2739 32.0918 72.4296 32.2475C72.5852 32.4032 72.7964 32.4906 73.0165 32.4906C73.2367 32.4906 73.4478 32.4032 73.6035 32.2475C73.7591 32.0918 73.8466 31.8807 73.8466 31.6605V30.5577H73.9628C74.4916 30.5573 74.9986 30.3471 75.3726 29.9733C75.7466 29.5995 75.9571 29.0926 75.9578 28.5639V25.514C76.7472 26.2181 77.471 26.9925 78.1203 27.8276C79.8039 30.0155 80.5511 32.2243 80.2246 34.0474C79.4308 38.4758 80.5566 41.692 80.6051 41.8267C80.6185 41.8641 80.6346 41.9006 80.6532 41.9358C81.7295 43.953 81.6133 46.1775 81.2615 47.8346V47.835Z" fill="url(#paint1_linear_1_579)"/>
<path d="M80.8244 74.209C81.0445 74.209 81.2557 74.1215 81.4113 73.9659C81.567 73.8102 81.6545 73.5991 81.6545 73.3789C81.6545 73.1588 81.567 72.9476 81.4113 72.792C81.2557 72.6363 81.0445 72.5488 80.8244 72.5488H78.0938C77.8736 72.5488 77.6625 72.6363 77.5068 72.792C77.3511 72.9476 77.2637 73.1588 77.2637 73.3789C77.2637 73.5991 77.3511 73.8102 77.5068 73.9659C77.6625 74.1215 77.8736 74.209 78.0938 74.209H80.8244Z" fill="url(#paint2_linear_1_579)"/>
<path d="M17.8012 74.209C18.0213 74.209 18.2325 74.1215 18.3882 73.9659C18.5438 73.8102 18.6313 73.5991 18.6313 73.3789C18.6313 73.1588 18.5438 72.9476 18.3882 72.792C18.2325 72.6363 18.0213 72.5488 17.8012 72.5488H5.82483C5.60468 72.5488 5.39355 72.6363 5.23788 72.792C5.08221 72.9476 4.99475 73.1588 4.99475 73.3789C4.99475 73.5991 5.08221 73.8102 5.23788 73.9659C5.39355 74.1215 5.60468 74.209 5.82483 74.209H17.8012Z" fill="url(#paint3_linear_1_579)"/>
<defs>
<linearGradient id="paint0_linear_1_579" x1="74.6772" y1="57.9707" x2="74.6772" y2="58.023" gradientUnits="userSpaceOnUse">
<stop stop-color="#AA790F"/>
<stop offset="0.635417" stop-color="#EFD873"/>
<stop offset="1" stop-color="#DDBD53"/>
</linearGradient>
<linearGradient id="paint1_linear_1_579" x1="42.4989" y1="10.8031" x2="42.4989" y2="74.2186" gradientUnits="userSpaceOnUse">
<stop stop-color="#AA790F"/>
<stop offset="0.635417" stop-color="#EFD873"/>
<stop offset="1" stop-color="#DDBD53"/>
</linearGradient>
<linearGradient id="paint2_linear_1_579" x1="79.4588" y1="72.5491" x2="79.4588" y2="74.2093" gradientUnits="userSpaceOnUse">
<stop stop-color="#AA790F"/>
<stop offset="0.635417" stop-color="#EFD873"/>
<stop offset="1" stop-color="#DDBD53"/>
</linearGradient>
<linearGradient id="paint3_linear_1_579" x1="11.8124" y1="72.5491" x2="11.8124" y2="74.2093" gradientUnits="userSpaceOnUse">
<stop stop-color="#AA790F"/>
<stop offset="0.635417" stop-color="#EFD873"/>
<stop offset="1" stop-color="#DDBD53"/>
</linearGradient>
</defs>
</svg>
