<svg width="85" height="85" viewBox="0 0 85 85" fill="none" xmlns="http://www.w3.org/2000/svg">
<path d="M63.298 18.2866C57.9543 12.9429 50.8496 10 43.2923 10C35.7351 10 28.6304 12.9429 23.2866 18.2866C17.9429 23.6304 15 30.7351 15 38.2923C15 50.6716 32.3578 67.8396 39.8207 74.6461C40.8104 75.5488 42.0512 76 43.2924 76C44.5334 76 45.7747 75.5486 46.7642 74.6461C54.227 67.8395 71.5849 50.6716 71.5849 38.2923C71.5846 30.7351 68.6418 23.6303 63.298 18.2866ZM45.4632 73.2199C44.2256 74.3487 42.3591 74.3487 41.1215 73.2199C37.877 70.2606 31.6441 64.3036 26.3552 57.6561C20.1013 49.7955 16.9303 43.2807 16.9303 38.2923C16.9303 23.7563 28.7563 11.9303 43.2923 11.9303C57.8283 11.9303 69.6543 23.7563 69.6543 38.2923C69.6543 43.2807 66.4833 49.7955 60.2294 57.6561C54.9406 64.3036 48.7078 70.2606 45.4632 73.2199Z" fill="url(#paint0_linear_1_566)"/>
<path d="M47.9483 56.9737C46.4308 57.3508 44.8643 57.5419 43.2924 57.5419C35.7708 57.5419 29.244 53.2048 26.0786 46.9009L32.5895 41.5088C33 41.1688 33.0573 40.5604 32.7173 40.1498C32.3771 39.7395 31.7688 39.6821 31.3583 40.0221L25.273 45.0617C24.4789 42.9547 24.043 40.6735 24.043 38.2921C24.043 27.6779 32.6784 19.0425 43.2926 19.0425C48.4824 19.0425 53.3488 21.078 56.9954 24.7742C57.3696 25.1534 57.9808 25.1575 58.3603 24.7833C58.7398 24.409 58.7438 23.7978 58.3694 23.4184C54.3572 19.3518 49.0028 17.1122 43.2925 17.1122C31.6139 17.1122 22.1125 26.6135 22.1125 38.2921C22.1125 49.9708 31.6139 59.4721 43.2925 59.4721C45.0212 59.4721 46.7442 59.2617 48.4139 58.8469C48.9313 58.7185 49.2464 58.195 49.118 57.6775C48.9893 57.1603 48.4659 56.8449 47.9483 56.9737Z" fill="url(#paint1_linear_1_566)"/>
<path d="M61.0698 26.7769C60.7796 26.3295 60.1817 26.2026 59.7348 26.4927C59.2876 26.7829 59.1605 27.3805 59.4507 27.8277C61.473 30.9435 62.5419 34.5621 62.5419 38.2922C62.5419 38.9785 62.5053 39.661 62.4337 40.3375L57.2335 36.1815C56.3271 35.457 55.0203 35.4685 54.1264 36.2086L49.3191 40.1898L41.6402 34.0526C40.7337 33.3284 39.427 33.3398 38.5332 34.0798L34.5259 37.3986C34.1154 37.7385 34.0581 38.347 34.3981 38.7576C34.7381 39.1683 35.3465 39.2254 35.757 38.8853L39.7644 35.5665C39.9573 35.4067 40.2394 35.4044 40.435 35.5606L48.7219 42.1836C48.7247 42.1859 48.7277 42.1882 48.7305 42.1904L58.5443 50.0337C56.7132 52.4106 54.3555 54.3331 51.6431 55.6412C51.163 55.8728 50.9615 56.4497 51.193 56.9299C51.3594 57.2749 51.704 57.476 52.063 57.476C52.2037 57.476 52.3465 57.4451 52.4815 57.38C56.02 55.6735 59.0127 53.0198 61.1367 49.7057C63.3188 46.301 64.4721 42.3542 64.4721 38.2923C64.4722 34.1883 63.2956 30.2064 61.0698 26.7769ZM59.6472 48.444L50.8594 41.4207L55.3579 37.6953C55.5508 37.5357 55.8328 37.5329 56.0284 37.6894L62.0731 42.5204C61.6044 44.6101 60.7876 46.6105 59.6472 48.444Z" fill="url(#paint2_linear_1_566)"/>
<path d="M45.459 29.6809C45.459 31.8153 47.1955 33.5517 49.3298 33.5517C51.4641 33.5517 53.2006 31.8153 53.2006 29.6809C53.2006 27.5465 51.4641 25.8101 49.3298 25.8101C47.1955 25.8101 45.459 27.5465 45.459 29.6809ZM51.2704 29.6809C51.2704 30.7508 50.3999 31.6214 49.3299 31.6214C48.26 31.6214 47.3894 30.7508 47.3894 29.6809C47.3894 28.611 48.26 27.7404 49.3299 27.7404C50.3999 27.7404 51.2704 28.6108 51.2704 29.6809Z" fill="url(#paint3_linear_1_566)"/>
<defs>
<linearGradient id="paint0_linear_1_566" x1="43.2897" y1="10.0127" x2="43.2897" y2="76.0112" gradientUnits="userSpaceOnUse">
<stop stop-color="#AA790F"/>
<stop offset="0.635417" stop-color="#EFD873"/>
<stop offset="1" stop-color="#DDBD53"/>
</linearGradient>
<linearGradient id="paint1_linear_1_566" x1="40.3783" y1="17.1203" x2="40.3783" y2="59.4793" gradientUnits="userSpaceOnUse">
<stop stop-color="#AA790F"/>
<stop offset="0.635417" stop-color="#EFD873"/>
<stop offset="1" stop-color="#DDBD53"/>
</linearGradient>
<linearGradient id="paint2_linear_1_566" x1="49.3227" y1="26.343" x2="49.3227" y2="57.4813" gradientUnits="userSpaceOnUse">
<stop stop-color="#AA790F"/>
<stop offset="0.635417" stop-color="#EFD873"/>
<stop offset="1" stop-color="#DDBD53"/>
</linearGradient>
<linearGradient id="paint3_linear_1_566" x1="49.3294" y1="25.8115" x2="49.3294" y2="33.553" gradientUnits="userSpaceOnUse">
<stop stop-color="#AA790F"/>
<stop offset="0.635417" stop-color="#EFD873"/>
<stop offset="1" stop-color="#DDBD53"/>
</linearGradient>
</defs>
</svg>
