<svg width="85" height="85" viewBox="0 0 85 85" fill="none" xmlns="http://www.w3.org/2000/svg">
<path d="M57.0759 23.002V13.9805C57.0759 11.2342 54.8418 9 52.0955 9H32.9492C30.2029 9 27.9688 11.2342 27.9688 13.9805V23.002C23.4927 23.4993 20 27.3037 20 31.9102V68.0352C20 72.9784 24.0216 77 28.9648 77H56.0798C61.0231 77 65.0447 72.9784 65.0447 68.0352V31.9102C65.0447 27.3037 61.5518 23.4993 57.0759 23.002ZM31.9531 22.9453H29.9609V18.9609H31.9531V22.9453ZM51.0994 22.9453H33.9453V14.9766H51.0994V22.9453ZM53.0916 18.9609H55.0837V22.9453H53.0916V18.9609ZM32.9492 10.9922H52.0955C53.7433 10.9922 55.0837 12.3328 55.0837 13.9805V16.9688H53.0916V13.9805C53.0916 13.4302 52.6456 12.9844 52.0955 12.9844H32.9492C32.3991 12.9844 31.9531 13.4302 31.9531 13.9805V16.9688H29.9609V13.9805C29.9609 12.3328 31.3015 10.9922 32.9492 10.9922ZM63.0525 68.0352C63.0525 71.8798 59.9246 75.0078 56.0798 75.0078H28.9648C25.1201 75.0078 21.9922 71.8798 21.9922 68.0352V31.9102C21.9922 28.0655 25.1201 24.9375 28.9648 24.9375H56.0798C59.9246 24.9375 63.0525 28.0655 63.0525 31.9102V68.0352Z" fill="url(#paint0_linear_1_551)"/>
<path d="M56.0798 26.9297H28.9648C26.2185 26.9297 23.9844 29.1639 23.9844 31.9102V39.8789C23.9844 40.4291 24.4304 40.875 24.9805 40.875C25.5306 40.875 25.9766 40.4291 25.9766 39.8789V31.9102C25.9766 30.2625 27.317 28.9219 28.9648 28.9219H56.0798C57.7276 28.9219 59.0681 30.2625 59.0681 31.9102V68.0352C59.0681 69.6828 57.7276 71.0234 56.0798 71.0234H28.9648C27.317 71.0234 25.9766 69.6828 25.9766 68.0352V43.8633C25.9766 43.313 25.5306 42.8672 24.9805 42.8672C24.4304 42.8672 23.9844 43.313 23.9844 43.8633V68.0352C23.9844 70.7815 26.2185 73.0156 28.9648 73.0156H56.0798C58.8261 73.0156 61.0603 70.7815 61.0603 68.0352V31.9102C61.0603 29.1639 58.826 26.9297 56.0798 26.9297Z" fill="url(#paint1_linear_1_551)"/>
<path d="M27.9688 39.8789V68.0352C27.9688 68.5854 28.4147 69.0312 28.9648 69.0312H56.0798C56.63 69.0312 57.0759 68.5854 57.0759 68.0352V39.8789C57.0759 37.1326 54.8418 34.8984 52.0955 34.8984H32.9492C30.2031 34.8984 27.9688 37.1326 27.9688 39.8789ZM29.9609 39.8789C29.9609 38.2312 31.3014 36.8906 32.9492 36.8906H52.0955C53.7433 36.8906 55.0837 38.2312 55.0837 39.8789V67.0391H29.9609V39.8789Z" fill="url(#paint2_linear_1_551)"/>
<path d="M52.0956 32.9062C52.6457 32.9062 53.0917 32.4604 53.0917 31.9102C53.0917 31.3599 52.6457 30.9141 52.0956 30.9141H32.973C32.4229 30.9141 31.9769 31.3599 31.9769 31.9102C31.9769 32.4604 32.4229 32.9062 32.973 32.9062H52.0956Z" fill="url(#paint3_linear_1_551)"/>
<path d="M50.5308 50.1876L46.8488 49.6526L45.2022 46.3161C44.6951 45.2887 43.6682 44.6504 42.5225 44.6504C41.3767 44.6504 40.3499 45.2887 39.8427 46.3161L38.1961 49.6526L34.514 50.1876C33.3801 50.3523 32.4557 51.1316 32.1016 52.2215C31.7475 53.3112 32.0373 54.4849 32.8578 55.2847L35.5222 57.8817L34.8932 61.5489C34.6995 62.6782 35.1551 63.7984 36.0821 64.4717C36.6059 64.8522 37.2187 65.0456 37.8356 65.0455C38.3106 65.0455 38.788 64.931 39.2291 64.6991L42.5225 62.9679L45.8158 64.6992C46.83 65.2325 48.0359 65.1454 48.9628 64.4719C49.8898 63.7985 50.3454 62.6784 50.1518 61.5491L49.5228 57.8818L52.1872 55.2848C53.0076 54.485 53.2974 53.3112 52.9433 52.2215C52.5893 51.1318 51.6648 50.3523 50.5308 50.1876ZM50.7966 53.8581L47.7571 56.8208C47.5223 57.0498 47.4151 57.3794 47.4707 57.7025L48.1881 61.8859C48.2537 62.2681 48.1055 62.6323 47.7918 62.8602C47.4782 63.0882 47.0862 63.1165 46.7429 62.9359L42.986 60.9608C42.6957 60.8084 42.3491 60.8084 42.059 60.9608L38.3021 62.9359C37.9589 63.1161 37.5668 63.088 37.2531 62.8602C36.9394 62.6323 36.7912 62.2681 36.8568 61.8859L37.5743 57.7025C37.6297 57.3794 37.5226 57.0498 37.2878 56.8208L34.2484 53.8581C33.9708 53.5876 33.8765 53.2059 33.9963 52.8371C34.1161 52.4683 34.4168 52.2147 34.8005 52.1591L39.0007 51.5488C39.3251 51.5018 39.6056 51.2979 39.7507 51.0039L41.6292 47.1977C41.8008 46.85 42.1347 46.6424 42.5225 46.6424C42.9103 46.6424 43.2442 46.85 43.4158 47.1977L45.2943 51.0039C45.4394 51.2979 45.7199 51.5017 46.0443 51.5488L50.2445 52.1591C50.6281 52.2149 50.9287 52.4683 51.0486 52.8371C51.1683 53.2059 51.0741 53.5876 50.7966 53.8581Z" fill="url(#paint4_linear_1_551)"/>
<defs>
<linearGradient id="paint0_linear_1_551" x1="42.5202" y1="9.01308" x2="42.5202" y2="77.0115" gradientUnits="userSpaceOnUse">
<stop stop-color="#AA790F"/>
<stop offset="0.635417" stop-color="#EFD873"/>
<stop offset="1" stop-color="#DDBD53"/>
</linearGradient>
<linearGradient id="paint1_linear_1_551" x1="42.5205" y1="26.9386" x2="42.5205" y2="73.0234" gradientUnits="userSpaceOnUse">
<stop stop-color="#AA790F"/>
<stop offset="0.635417" stop-color="#EFD873"/>
<stop offset="1" stop-color="#DDBD53"/>
</linearGradient>
<linearGradient id="paint2_linear_1_551" x1="42.5209" y1="34.905" x2="42.5209" y2="69.037" gradientUnits="userSpaceOnUse">
<stop stop-color="#AA790F"/>
<stop offset="0.635417" stop-color="#EFD873"/>
<stop offset="1" stop-color="#DDBD53"/>
</linearGradient>
<linearGradient id="paint3_linear_1_551" x1="42.5333" y1="30.9144" x2="42.5333" y2="32.9066" gradientUnits="userSpaceOnUse">
<stop stop-color="#AA790F"/>
<stop offset="0.635417" stop-color="#EFD873"/>
<stop offset="1" stop-color="#DDBD53"/>
</linearGradient>
<linearGradient id="paint4_linear_1_551" x1="42.5214" y1="44.6543" x2="42.5214" y2="65.0492" gradientUnits="userSpaceOnUse">
<stop stop-color="#AA790F"/>
<stop offset="0.635417" stop-color="#EFD873"/>
<stop offset="1" stop-color="#DDBD53"/>
</linearGradient>
</defs>
</svg>
