<svg width="87" height="85" viewBox="0 0 87 85" fill="none" xmlns="http://www.w3.org/2000/svg">
<g id="fi_9365858" clip-path="url(#clip0_1_541)">
<g id="Layer_x0020_1">
<path id="Vector" fill-rule="evenodd" clip-rule="evenodd" d="M58.6665 57.1961H55.6114V61.5294C55.6114 63.0588 53.2506 63.0588 53.2506 61.5294V49.4706C53.2506 48.8431 53.7863 48.3137 54.4409 48.3137H58.6665C61.1464 48.3137 63.1501 50.3137 63.1501 52.7451C63.1501 55.1961 61.1464 57.1961 58.6665 57.1961ZM80.3104 67.9804H6.68962C3.27739 67.9804 0.5 65.2549 0.5 61.8824V23.1176C0.5 19.7451 3.27739 17 6.68962 17H80.3104C83.7226 17 86.5 19.7647 86.5 23.1176V61.8824C86.5 65.2549 83.7226 67.9804 80.3104 67.9804ZM6.68962 19.3333C4.5669 19.3333 2.86078 21.0392 2.86078 23.1176V32.451H84.1392V23.1176C84.1392 21.0392 82.4133 19.3333 80.3104 19.3333H6.68962ZM2.86078 45.3529V61.8824C2.86078 63.9608 4.5669 65.6667 6.68962 65.6667H80.3104C82.4133 65.6667 84.1392 63.9608 84.1392 61.8824V45.3529H2.86078ZM84.1392 43.0196V34.7647H2.86078V43.0196H84.1392ZM31.5275 62.1373L24.0086 50.0784C23.1953 48.7843 25.199 47.5686 26.0123 48.8627L32.5392 59.3137L39.0462 48.8627C39.8795 47.5686 41.8633 48.7843 41.0499 50.0784L33.5311 62.1569C33.0749 62.8824 31.9837 62.8824 31.5275 62.1373ZM47.2396 62.7059C46.5849 62.7059 46.0691 62.1765 46.0691 61.5294V49.4706C46.0691 47.9412 48.41 47.9412 48.41 49.4706V61.5294C48.41 62.1765 47.8942 62.7059 47.2396 62.7059ZM19.2276 29.1961H13.4149C9.01073 29.1961 9.01073 22.5882 13.4149 22.5882H19.2276C23.6317 22.5882 23.6119 29.1961 19.2276 29.1961ZM13.4149 24.902C12.1055 24.902 12.1055 26.8627 13.4149 26.8627H19.2276C20.5369 26.8627 20.5369 24.902 19.2276 24.902H13.4149ZM37.3401 29.1961H31.5473C27.1431 29.1961 27.1431 22.5882 31.5473 22.5882H37.3401C41.7443 22.5882 41.7443 29.1961 37.3401 29.1961ZM31.5275 24.902C30.2379 24.902 30.2379 26.8627 31.5275 26.8627H37.3401C38.6495 26.8627 38.6495 24.902 37.3401 24.902H31.5275ZM55.4725 29.1961H49.6599C45.2557 29.1961 45.2557 22.5882 49.6599 22.5882H55.4725C59.8569 22.5882 59.8569 29.1961 55.4725 29.1961ZM49.6599 24.902C48.3505 24.902 48.3505 26.8627 49.6599 26.8627H55.4527C56.7621 26.8627 56.7621 24.902 55.4527 24.902H49.6599ZM73.5851 29.1961H67.7724C63.3881 29.1961 63.3881 22.5882 67.7724 22.5882H73.5851C77.9893 22.5882 77.9694 29.1961 73.5851 29.1961ZM67.7724 24.902C66.4631 24.902 66.4631 26.8627 67.7724 26.8627H73.5851C74.8746 26.8627 74.8746 24.902 73.5851 24.902H67.7724ZM55.6114 54.8627H58.6665C61.4836 54.8627 61.4836 50.6471 58.6665 50.6471H55.6114V54.8627Z" fill="url(#paint0_linear_1_541)"/>
</g>
</g>
<defs>
<linearGradient id="paint0_linear_1_541" x1="43.4958" y1="17.0098" x2="43.4958" y2="67.989" gradientUnits="userSpaceOnUse">
<stop stop-color="#AA790F"/>
<stop offset="0.635417" stop-color="#EFD873"/>
<stop offset="1" stop-color="#DDBD53"/>
</linearGradient>
<clipPath id="clip0_1_541">
<rect width="86" height="85" fill="white" transform="translate(0.5)"/>
</clipPath>
</defs>
</svg>
